<?xml version="1.0" encoding="utf-8" standalone="no"?>
<!DOCTYPE svg PUBLIC "-//W3C//DTD SVG 1.1//EN"
  "http://www.w3.org/Graphics/SVG/1.1/DTD/svg11.dtd">
<svg height="262.80875pt" version="1.1" viewBox="0 0 374.21502 262.80875" width="374.21502pt" xmlns="http://www.w3.org/2000/svg" xmlns:xlink="http://www.w3.org/1999/xlink">
 <metadata>
  <rdf:RDF xmlns:cc="http://creativecommons.org/ns#" xmlns:dc="http://purl.org/dc/elements/1.1/" xmlns:rdf="http://www.w3.org/1999/02/22-rdf-syntax-ns#">
   <cc:Work>
    <dc:type rdf:resource="http://purl.org/dc/dcmitype/StillImage"/>
    <dc:date>2022-12-03T18:26:05.247518</dc:date>
    <dc:format>image/svg+xml</dc:format>
    <dc:creator>
     <cc:Agent>
      <dc:title>Matplotlib v3.4.3, https://matplotlib.org/</dc:title>
     </cc:Agent>
    </dc:creator>
   </cc:Work>
  </rdf:RDF>
 </metadata>
 <defs>
  <style type="text/css">*{stroke-linecap:butt;stroke-linejoin:round;}</style>
 </defs>
 <g id="figure_1">
  <g id="patch_1">
   <path d="M 0 262.80875 
L 374.21502 262.80875 
L 374.21502 0 
L 0 0 
z
" style="fill:none;"/>
  </g>
  <g id="axes_1">
   <g id="patch_2">
    <path d="M 29.2 240.48375 
L 364 240.48375 
L 364 23.04375 
L 29.2 23.04375 
z
" style="fill:#ffffff;"/>
   </g>
   <g id="PathCollection_1">
    <defs>
     <path d="M 0 3 
C 0.795609 3 1.55874 2.683901 2.12132 2.12132 
C 2.683901 1.55874 3 0.795609 3 0 
C 3 -0.795609 2.683901 -1.55874 2.12132 -2.12132 
C 1.55874 -2.683901 0.795609 -3 0 -3 
C -0.795609 -3 -1.55874 -2.683901 -2.12132 -2.12132 
C -2.683901 -1.55874 -3 -0.795609 -3 0 
C -3 0.795609 -2.683901 1.55874 -2.12132 2.12132 
C -1.55874 2.683901 -0.795609 3 0 3 
z
" id="mee70f935be" style="stroke:#87ceeb;"/>
    </defs>
    <g clip-path="url(#p68051eca83)">
     <use style="fill:#87ceeb;stroke:#87ceeb;" x="44.418182" xlink:href="#mee70f935be" y="103.862576"/>
     <use style="fill:#87ceeb;stroke:#87ceeb;" x="45.520949" xlink:href="#mee70f935be" y="105.092119"/>
     <use style="fill:#87ceeb;stroke:#87ceeb;" x="48.829249" xlink:href="#mee70f935be" y="106.416242"/>
     <use style="fill:#87ceeb;stroke:#87ceeb;" x="51.034783" xlink:href="#mee70f935be" y="103.862576"/>
     <use style="fill:#87ceeb;stroke:#87ceeb;" x="53.240316" xlink:href="#mee70f935be" y="106.416242"/>
     <use style="fill:#87ceeb;stroke:#87ceeb;" x="65.370751" xlink:href="#mee70f935be" y="106.416242"/>
     <use style="fill:#87ceeb;stroke:#87ceeb;" x="67.576285" xlink:href="#mee70f935be" y="106.416242"/>
     <use style="fill:#87ceeb;stroke:#87ceeb;" x="68.679051" xlink:href="#mee70f935be" y="105.092119"/>
     <use style="fill:#87ceeb;stroke:#87ceeb;" x="74.192885" xlink:href="#mee70f935be" y="106.416242"/>
     <use style="fill:#87ceeb;stroke:#87ceeb;" x="76.398419" xlink:href="#mee70f935be" y="106.416242"/>
     <use style="fill:#87ceeb;stroke:#87ceeb;" x="79.706719" xlink:href="#mee70f935be" y="105.092119"/>
     <use style="fill:#87ceeb;stroke:#87ceeb;" x="79.706719" xlink:href="#mee70f935be" y="106.416242"/>
     <use style="fill:#87ceeb;stroke:#87ceeb;" x="84.117787" xlink:href="#mee70f935be" y="106.416242"/>
     <use style="fill:#87ceeb;stroke:#87ceeb;" x="86.32332" xlink:href="#mee70f935be" y="106.416242"/>
     <use style="fill:#87ceeb;stroke:#87ceeb;" x="87.426087" xlink:href="#mee70f935be" y="108.969909"/>
     <use style="fill:#87ceeb;stroke:#87ceeb;" x="89.631621" xlink:href="#mee70f935be" y="106.416242"/>
     <use style="fill:#87ceeb;stroke:#87ceeb;" x="91.837154" xlink:href="#mee70f935be" y="108.969909"/>
     <use style="fill:#87ceeb;stroke:#87ceeb;" x="94.042688" xlink:href="#mee70f935be" y="103.862576"/>
     <use style="fill:#87ceeb;stroke:#87ceeb;" x="103.967589" xlink:href="#mee70f935be" y="106.416242"/>
     <use style="fill:#87ceeb;stroke:#87ceeb;" x="106.173123" xlink:href="#mee70f935be" y="106.416242"/>
     <use style="fill:#87ceeb;stroke:#87ceeb;" x="107.275889" xlink:href="#mee70f935be" y="103.862576"/>
     <use style="fill:#87ceeb;stroke:#87ceeb;" x="111.686957" xlink:href="#mee70f935be" y="116.441749"/>
     <use style="fill:#87ceeb;stroke:#87ceeb;" x="111.686957" xlink:href="#mee70f935be" y="108.969909"/>
     <use style="fill:#87ceeb;stroke:#87ceeb;" x="111.686957" xlink:href="#mee70f935be" y="108.969909"/>
     <use style="fill:#87ceeb;stroke:#87ceeb;" x="111.686957" xlink:href="#mee70f935be" y="112.658539"/>
     <use style="fill:#87ceeb;stroke:#87ceeb;" x="111.686957" xlink:href="#mee70f935be" y="118.995416"/>
     <use style="fill:#87ceeb;stroke:#87ceeb;" x="111.686957" xlink:href="#mee70f935be" y="125.426873"/>
     <use style="fill:#87ceeb;stroke:#87ceeb;" x="112.789723" xlink:href="#mee70f935be" y="106.416242"/>
     <use style="fill:#87ceeb;stroke:#87ceeb;" x="116.098024" xlink:href="#mee70f935be" y="125.426873"/>
     <use style="fill:#87ceeb;stroke:#87ceeb;" x="116.098024" xlink:href="#mee70f935be" y="134.222837"/>
     <use style="fill:#87ceeb;stroke:#87ceeb;" x="116.098024" xlink:href="#mee70f935be" y="154.463011"/>
     <use style="fill:#87ceeb;stroke:#87ceeb;" x="116.098024" xlink:href="#mee70f935be" y="155.787134"/>
     <use style="fill:#87ceeb;stroke:#87ceeb;" x="117.200791" xlink:href="#mee70f935be" y="141.883837"/>
     <use style="fill:#87ceeb;stroke:#87ceeb;" x="117.200791" xlink:href="#mee70f935be" y="124.19733"/>
     <use style="fill:#87ceeb;stroke:#87ceeb;" x="118.303557" xlink:href="#mee70f935be" y="124.19733"/>
     <use style="fill:#87ceeb;stroke:#87ceeb;" x="118.303557" xlink:href="#mee70f935be" y="151.909344"/>
     <use style="fill:#87ceeb;stroke:#87ceeb;" x="119.406324" xlink:href="#mee70f935be" y="144.437504"/>
     <use style="fill:#87ceeb;stroke:#87ceeb;" x="119.406324" xlink:href="#mee70f935be" y="129.210083"/>
     <use style="fill:#87ceeb;stroke:#87ceeb;" x="120.509091" xlink:href="#mee70f935be" y="124.19733"/>
     <use style="fill:#87ceeb;stroke:#87ceeb;" x="120.509091" xlink:href="#mee70f935be" y="151.909344"/>
     <use style="fill:#87ceeb;stroke:#87ceeb;" x="120.509091" xlink:href="#mee70f935be" y="162.218591"/>
     <use style="fill:#87ceeb;stroke:#87ceeb;" x="121.611858" xlink:href="#mee70f935be" y="108.969909"/>
     <use style="fill:#87ceeb;stroke:#87ceeb;" x="121.611858" xlink:href="#mee70f935be" y="179.905098"/>
     <use style="fill:#87ceeb;stroke:#87ceeb;" x="122.714625" xlink:href="#mee70f935be" y="159.664924"/>
     <use style="fill:#87ceeb;stroke:#87ceeb;" x="123.817391" xlink:href="#mee70f935be" y="171.014555"/>
     <use style="fill:#87ceeb;stroke:#87ceeb;" x="123.817391" xlink:href="#mee70f935be" y="190.025185"/>
     <use style="fill:#87ceeb;stroke:#87ceeb;" x="123.817391" xlink:href="#mee70f935be" y="177.351432"/>
     <use style="fill:#87ceeb;stroke:#87ceeb;" x="128.228458" xlink:href="#mee70f935be" y="139.33017"/>
     <use style="fill:#87ceeb;stroke:#87ceeb;" x="128.228458" xlink:href="#mee70f935be" y="184.823272"/>
     <use style="fill:#87ceeb;stroke:#87ceeb;" x="128.228458" xlink:href="#mee70f935be" y="220.290866"/>
     <use style="fill:#87ceeb;stroke:#87ceeb;" x="128.228458" xlink:href="#mee70f935be" y="200.239853"/>
     <use style="fill:#87ceeb;stroke:#87ceeb;" x="129.331225" xlink:href="#mee70f935be" y="197.591606"/>
     <use style="fill:#87ceeb;stroke:#87ceeb;" x="129.331225" xlink:href="#mee70f935be" y="202.604359"/>
     <use style="fill:#87ceeb;stroke:#87ceeb;" x="133.742292" xlink:href="#mee70f935be" y="210.265359"/>
     <use style="fill:#87ceeb;stroke:#87ceeb;" x="133.742292" xlink:href="#mee70f935be" y="151.909344"/>
     <use style="fill:#87ceeb;stroke:#87ceeb;" x="137.050593" xlink:href="#mee70f935be" y="220.290866"/>
     <use style="fill:#87ceeb;stroke:#87ceeb;" x="138.15336" xlink:href="#mee70f935be" y="184.823272"/>
     <use style="fill:#87ceeb;stroke:#87ceeb;" x="138.15336" xlink:href="#mee70f935be" y="172.244098"/>
     <use style="fill:#87ceeb;stroke:#87ceeb;" x="139.256126" xlink:href="#mee70f935be" y="224.168656"/>
     <use style="fill:#87ceeb;stroke:#87ceeb;" x="142.564427" xlink:href="#mee70f935be" y="220.290866"/>
     <use style="fill:#87ceeb;stroke:#87ceeb;" x="143.667194" xlink:href="#mee70f935be" y="215.372693"/>
     <use style="fill:#87ceeb;stroke:#87ceeb;" x="148.078261" xlink:href="#mee70f935be" y="230.600114"/>
     <use style="fill:#87ceeb;stroke:#87ceeb;" x="149.181028" xlink:href="#mee70f935be" y="200.239853"/>
     <use style="fill:#87ceeb;stroke:#87ceeb;" x="151.386561" xlink:href="#mee70f935be" y="206.387569"/>
     <use style="fill:#87ceeb;stroke:#87ceeb;" x="152.489328" xlink:href="#mee70f935be" y="220.290866"/>
     <use style="fill:#87ceeb;stroke:#87ceeb;" x="159.105929" xlink:href="#mee70f935be" y="220.290866"/>
     <use style="fill:#87ceeb;stroke:#87ceeb;" x="160.208696" xlink:href="#mee70f935be" y="225.3982"/>
     <use style="fill:#87ceeb;stroke:#87ceeb;" x="163.516996" xlink:href="#mee70f935be" y="210.265359"/>
     <use style="fill:#87ceeb;stroke:#87ceeb;" x="164.619763" xlink:href="#mee70f935be" y="193.808395"/>
     <use style="fill:#87ceeb;stroke:#87ceeb;" x="164.619763" xlink:href="#mee70f935be" y="181.229222"/>
     <use style="fill:#87ceeb;stroke:#87ceeb;" x="166.825296" xlink:href="#mee70f935be" y="154.463011"/>
     <use style="fill:#87ceeb;stroke:#87ceeb;" x="169.03083" xlink:href="#mee70f935be" y="164.772258"/>
     <use style="fill:#87ceeb;stroke:#87ceeb;" x="169.03083" xlink:href="#mee70f935be" y="158.340801"/>
     <use style="fill:#87ceeb;stroke:#87ceeb;" x="171.236364" xlink:href="#mee70f935be" y="172.244098"/>
     <use style="fill:#87ceeb;stroke:#87ceeb;" x="171.236364" xlink:href="#mee70f935be" y="145.761627"/>
     <use style="fill:#87ceeb;stroke:#87ceeb;" x="172.33913" xlink:href="#mee70f935be" y="129.210083"/>
     <use style="fill:#87ceeb;stroke:#87ceeb;" x="174.544664" xlink:href="#mee70f935be" y="108.969909"/>
     <use style="fill:#87ceeb;stroke:#87ceeb;" x="175.647431" xlink:href="#mee70f935be" y="205.158026"/>
     <use style="fill:#87ceeb;stroke:#87ceeb;" x="175.647431" xlink:href="#mee70f935be" y="124.19733"/>
     <use style="fill:#87ceeb;stroke:#87ceeb;" x="176.750198" xlink:href="#mee70f935be" y="165.907221"/>
     <use style="fill:#87ceeb;stroke:#87ceeb;" x="180.058498" xlink:href="#mee70f935be" y="118.995416"/>
     <use style="fill:#87ceeb;stroke:#87ceeb;" x="181.161265" xlink:href="#mee70f935be" y="146.991171"/>
     <use style="fill:#87ceeb;stroke:#87ceeb;" x="181.161265" xlink:href="#mee70f935be" y="126.750997"/>
     <use style="fill:#87ceeb;stroke:#87ceeb;" x="181.161265" xlink:href="#mee70f935be" y="94.877452"/>
     <use style="fill:#87ceeb;stroke:#87ceeb;" x="183.366798" xlink:href="#mee70f935be" y="100.079365"/>
     <use style="fill:#87ceeb;stroke:#87ceeb;" x="186.675099" xlink:href="#mee70f935be" y="92.512945"/>
     <use style="fill:#87ceeb;stroke:#87ceeb;" x="187.777866" xlink:href="#mee70f935be" y="124.19733"/>
     <use style="fill:#87ceeb;stroke:#87ceeb;" x="187.777866" xlink:href="#mee70f935be" y="68.394981"/>
     <use style="fill:#87ceeb;stroke:#87ceeb;" x="188.880632" xlink:href="#mee70f935be" y="59.504437"/>
     <use style="fill:#87ceeb;stroke:#87ceeb;" x="193.2917" xlink:href="#mee70f935be" y="120.319539"/>
     <use style="fill:#87ceeb;stroke:#87ceeb;" x="197.702767" xlink:href="#mee70f935be" y="69.624524"/>
     <use style="fill:#87ceeb;stroke:#87ceeb;" x="202.113834" xlink:href="#mee70f935be" y="32.927386"/>
     <use style="fill:#87ceeb;stroke:#87ceeb;" x="203.216601" xlink:href="#mee70f935be" y="96.201575"/>
     <use style="fill:#87ceeb;stroke:#87ceeb;" x="207.627668" xlink:href="#mee70f935be" y="51.938017"/>
     <use style="fill:#87ceeb;stroke:#87ceeb;" x="207.627668" xlink:href="#mee70f935be" y="58.274894"/>
     <use style="fill:#87ceeb;stroke:#87ceeb;" x="212.038735" xlink:href="#mee70f935be" y="59.504437"/>
     <use style="fill:#87ceeb;stroke:#87ceeb;" x="215.347036" xlink:href="#mee70f935be" y="88.729735"/>
     <use style="fill:#87ceeb;stroke:#87ceeb;" x="217.552569" xlink:href="#mee70f935be" y="60.733981"/>
     <use style="fill:#87ceeb;stroke:#87ceeb;" x="220.86087" xlink:href="#mee70f935be" y="102.633032"/>
     <use style="fill:#87ceeb;stroke:#87ceeb;" x="223.066403" xlink:href="#mee70f935be" y="32.927386"/>
     <use style="fill:#87ceeb;stroke:#87ceeb;" x="225.271937" xlink:href="#mee70f935be" y="118.995416"/>
     <use style="fill:#87ceeb;stroke:#87ceeb;" x="225.271937" xlink:href="#mee70f935be" y="155.787134"/>
     <use style="fill:#87ceeb;stroke:#87ceeb;" x="226.374704" xlink:href="#mee70f935be" y="38.03472"/>
     <use style="fill:#87ceeb;stroke:#87ceeb;" x="227.47747" xlink:href="#mee70f935be" y="70.948648"/>
     <use style="fill:#87ceeb;stroke:#87ceeb;" x="227.47747" xlink:href="#mee70f935be" y="73.502315"/>
     <use style="fill:#87ceeb;stroke:#87ceeb;" x="230.785771" xlink:href="#mee70f935be" y="139.33017"/>
     <use style="fill:#87ceeb;stroke:#87ceeb;" x="230.785771" xlink:href="#mee70f935be" y="82.298278"/>
     <use style="fill:#87ceeb;stroke:#87ceeb;" x="240.710672" xlink:href="#mee70f935be" y="59.504437"/>
     <use style="fill:#87ceeb;stroke:#87ceeb;" x="240.710672" xlink:href="#mee70f935be" y="93.742489"/>
     <use style="fill:#87ceeb;stroke:#87ceeb;" x="247.327273" xlink:href="#mee70f935be" y="98.755242"/>
     <use style="fill:#87ceeb;stroke:#87ceeb;" x="248.43004" xlink:href="#mee70f935be" y="105.092119"/>
     <use style="fill:#87ceeb;stroke:#87ceeb;" x="251.73834" xlink:href="#mee70f935be" y="124.19733"/>
     <use style="fill:#87ceeb;stroke:#87ceeb;" x="253.943874" xlink:href="#mee70f935be" y="116.441749"/>
     <use style="fill:#87ceeb;stroke:#87ceeb;" x="260.560474" xlink:href="#mee70f935be" y="74.731858"/>
     <use style="fill:#87ceeb;stroke:#87ceeb;" x="260.560474" xlink:href="#mee70f935be" y="113.982663"/>
     <use style="fill:#87ceeb;stroke:#87ceeb;" x="264.971542" xlink:href="#mee70f935be" y="76.055981"/>
     <use style="fill:#87ceeb;stroke:#87ceeb;" x="267.177075" xlink:href="#mee70f935be" y="103.862576"/>
     <use style="fill:#87ceeb;stroke:#87ceeb;" x="267.177075" xlink:href="#mee70f935be" y="113.982663"/>
     <use style="fill:#87ceeb;stroke:#87ceeb;" x="268.279842" xlink:href="#mee70f935be" y="89.959278"/>
     <use style="fill:#87ceeb;stroke:#87ceeb;" x="273.793676" xlink:href="#mee70f935be" y="105.092119"/>
     <use style="fill:#87ceeb;stroke:#87ceeb;" x="275.999209" xlink:href="#mee70f935be" y="103.862576"/>
     <use style="fill:#87ceeb;stroke:#87ceeb;" x="279.30751" xlink:href="#mee70f935be" y="93.742489"/>
     <use style="fill:#87ceeb;stroke:#87ceeb;" x="288.129644" xlink:href="#mee70f935be" y="93.742489"/>
     <use style="fill:#87ceeb;stroke:#87ceeb;" x="294.746245" xlink:href="#mee70f935be" y="129.210083"/>
     <use style="fill:#87ceeb;stroke:#87ceeb;" x="294.746245" xlink:href="#mee70f935be" y="117.765873"/>
     <use style="fill:#87ceeb;stroke:#87ceeb;" x="300.260079" xlink:href="#mee70f935be" y="116.441749"/>
     <use style="fill:#87ceeb;stroke:#87ceeb;" x="310.18498" xlink:href="#mee70f935be" y="103.862576"/>
     <use style="fill:#87ceeb;stroke:#87ceeb;" x="317.904348" xlink:href="#mee70f935be" y="93.742489"/>
     <use style="fill:#87ceeb;stroke:#87ceeb;" x="324.520949" xlink:href="#mee70f935be" y="117.765873"/>
     <use style="fill:#87ceeb;stroke:#87ceeb;" x="334.44585" xlink:href="#mee70f935be" y="106.416242"/>
     <use style="fill:#87ceeb;stroke:#87ceeb;" x="334.44585" xlink:href="#mee70f935be" y="93.742489"/>
     <use style="fill:#87ceeb;stroke:#87ceeb;" x="336.651383" xlink:href="#mee70f935be" y="106.416242"/>
     <use style="fill:#87ceeb;stroke:#87ceeb;" x="348.781818" xlink:href="#mee70f935be" y="93.742489"/>
    </g>
   </g>
   <g id="matplotlib.axis_1">
    <g id="xtick_1">
     <g id="line2d_1">
      <defs>
       <path d="M 0 0 
L 0 3.5 
" id="mcbac76b463" style="stroke:#000000;stroke-width:0.8;"/>
      </defs>
      <g>
       <use style="stroke:#000000;stroke-width:0.8;" x="31.18498" xlink:href="#mcbac76b463" y="240.48375"/>
      </g>
     </g>
     <g id="text_1">
      <!-- 0 -->
      <g transform="translate(28.68498 254.35875)scale(0.1 -0.1)">
       <defs>
        <path d="M 225 2537 
Q 250 3200 412 3587 
Q 575 3975 875 4225 
Q 1175 4475 1612 4475 
Q 2050 4475 2375 4112 
Q 2700 3750 2800 3200 
Q 2900 2650 2862 1937 
Q 2825 1225 2612 775 
Q 2400 325 1975 150 
Q 1550 -25 1125 187 
Q 700 400 525 750 
Q 350 1100 275 1487 
Q 200 1875 225 2537 
z
M 750 2687 
Q 675 2000 800 1462 
Q 925 925 1212 700 
Q 1500 475 1800 612 
Q 2100 750 2237 1162 
Q 2375 1575 2375 2062 
Q 2375 2550 2337 2950 
Q 2300 3350 2112 3675 
Q 1925 4000 1612 4012 
Q 1300 4025 1062 3700 
Q 825 3375 750 2687 
z
" id="SimHei-30" transform="scale(0.015625)"/>
       </defs>
       <use xlink:href="#SimHei-30"/>
      </g>
     </g>
    </g>
    <g id="xtick_2">
     <g id="line2d_2">
      <g>
       <use style="stroke:#000000;stroke-width:0.8;" x="86.32332" xlink:href="#mcbac76b463" y="240.48375"/>
      </g>
     </g>
     <g id="text_2">
      <!-- 10 -->
      <g transform="translate(81.32332 254.35875)scale(0.1 -0.1)">
       <defs>
        <path d="M 1400 3600 
Q 1075 3275 575 2975 
L 575 3450 
Q 1200 3875 1600 4450 
L 1900 4450 
L 1900 150 
L 1400 150 
L 1400 3600 
z
" id="SimHei-31" transform="scale(0.015625)"/>
       </defs>
       <use xlink:href="#SimHei-31"/>
       <use x="50" xlink:href="#SimHei-30"/>
      </g>
     </g>
    </g>
    <g id="xtick_3">
     <g id="line2d_3">
      <g>
       <use style="stroke:#000000;stroke-width:0.8;" x="141.46166" xlink:href="#mcbac76b463" y="240.48375"/>
      </g>
     </g>
     <g id="text_3">
      <!-- 20 -->
      <g transform="translate(136.46166 254.35875)scale(0.1 -0.1)">
       <defs>
        <path d="M 300 250 
Q 325 625 650 925 
Q 975 1225 1475 1862 
Q 1975 2500 2125 2850 
Q 2275 3200 2237 3450 
Q 2200 3700 2000 3862 
Q 1800 4025 1537 4000 
Q 1275 3975 1037 3800 
Q 800 3625 675 3275 
L 200 3350 
Q 400 3925 712 4187 
Q 1025 4450 1450 4475 
Q 1700 4500 1900 4462 
Q 2100 4425 2312 4287 
Q 2525 4150 2662 3875 
Q 2800 3600 2762 3212 
Q 2725 2825 2375 2287 
Q 2025 1750 1025 600 
L 2825 600 
L 2825 150 
L 300 150 
L 300 250 
z
" id="SimHei-32" transform="scale(0.015625)"/>
       </defs>
       <use xlink:href="#SimHei-32"/>
       <use x="50" xlink:href="#SimHei-30"/>
      </g>
     </g>
    </g>
    <g id="xtick_4">
     <g id="line2d_4">
      <g>
       <use style="stroke:#000000;stroke-width:0.8;" x="196.6" xlink:href="#mcbac76b463" y="240.48375"/>
      </g>
     </g>
     <g id="text_4">
      <!-- 30 -->
      <g transform="translate(191.6 254.35875)scale(0.1 -0.1)">
       <defs>
        <path d="M 250 1225 
L 700 1300 
Q 800 975 1025 762 
Q 1250 550 1587 562 
Q 1925 575 2125 837 
Q 2325 1100 2300 1437 
Q 2275 1775 2037 1962 
Q 1800 2150 1275 2225 
L 1275 2550 
Q 1800 2600 2037 2825 
Q 2275 3050 2250 3412 
Q 2225 3775 1925 3937 
Q 1625 4100 1287 3975 
Q 950 3850 750 3275 
L 300 3350 
Q 450 3800 712 4100 
Q 975 4400 1425 4450 
Q 1875 4500 2212 4337 
Q 2550 4175 2687 3837 
Q 2825 3500 2725 3100 
Q 2625 2700 2150 2400 
Q 2500 2250 2687 1950 
Q 2875 1650 2812 1162 
Q 2750 675 2375 375 
Q 2000 75 1525 87 
Q 1050 100 700 387 
Q 350 675 250 1225 
z
" id="SimHei-33" transform="scale(0.015625)"/>
       </defs>
       <use xlink:href="#SimHei-33"/>
       <use x="50" xlink:href="#SimHei-30"/>
      </g>
     </g>
    </g>
    <g id="xtick_5">
     <g id="line2d_5">
      <g>
       <use style="stroke:#000000;stroke-width:0.8;" x="251.73834" xlink:href="#mcbac76b463" y="240.48375"/>
      </g>
     </g>
     <g id="text_5">
      <!-- 40 -->
      <g transform="translate(246.73834 254.35875)scale(0.1 -0.1)">
       <defs>
        <path d="M 2000 1100 
L 75 1100 
L 75 1525 
L 2100 4450 
L 2475 4450 
L 2475 1525 
L 3075 1525 
L 3075 1100 
L 2475 1100 
L 2475 150 
L 2000 150 
L 2000 1100 
z
M 2000 1525 
L 2000 3500 
L 600 1525 
L 2000 1525 
z
" id="SimHei-34" transform="scale(0.015625)"/>
       </defs>
       <use xlink:href="#SimHei-34"/>
       <use x="50" xlink:href="#SimHei-30"/>
      </g>
     </g>
    </g>
    <g id="xtick_6">
     <g id="line2d_6">
      <g>
       <use style="stroke:#000000;stroke-width:0.8;" x="306.87668" xlink:href="#mcbac76b463" y="240.48375"/>
      </g>
     </g>
     <g id="text_6">
      <!-- 50 -->
      <g transform="translate(301.87668 254.35875)scale(0.1 -0.1)">
       <defs>
        <path d="M 550 1325 
Q 725 650 1150 575 
Q 1575 500 1837 662 
Q 2100 825 2212 1087 
Q 2325 1350 2312 1675 
Q 2300 2000 2137 2225 
Q 1975 2450 1725 2525 
Q 1475 2600 1162 2525 
Q 850 2450 650 2175 
L 225 2225 
Q 275 2375 700 4375 
L 2675 4375 
L 2675 3925 
L 1075 3925 
Q 950 3250 825 2850 
Q 1200 3025 1525 3012 
Q 1850 3000 2150 2862 
Q 2450 2725 2587 2487 
Q 2725 2250 2787 2012 
Q 2850 1775 2837 1500 
Q 2825 1225 2725 937 
Q 2625 650 2425 462 
Q 2225 275 1937 162 
Q 1650 50 1275 75 
Q 900 100 562 350 
Q 225 600 100 1200 
L 550 1325 
z
" id="SimHei-35" transform="scale(0.015625)"/>
       </defs>
       <use xlink:href="#SimHei-35"/>
       <use x="50" xlink:href="#SimHei-30"/>
      </g>
     </g>
    </g>
    <g id="xtick_7">
     <g id="line2d_7">
      <g>
       <use style="stroke:#000000;stroke-width:0.8;" x="362.01502" xlink:href="#mcbac76b463" y="240.48375"/>
      </g>
     </g>
     <g id="text_7">
      <!-- 60 -->
      <g transform="translate(357.01502 254.35875)scale(0.1 -0.1)">
       <defs>
        <path d="M 250 1612 
Q 275 1975 387 2225 
Q 500 2475 725 2850 
L 1750 4450 
L 2325 4450 
L 1275 2800 
Q 1950 2975 2350 2750 
Q 2750 2525 2887 2237 
Q 3025 1950 3037 1612 
Q 3050 1275 2937 950 
Q 2825 625 2537 362 
Q 2250 100 1737 75 
Q 1225 50 862 262 
Q 500 475 362 862 
Q 225 1250 250 1612 
z
M 1025 787 
Q 1250 550 1625 525 
Q 2000 500 2250 775 
Q 2500 1050 2500 1575 
Q 2500 2100 2187 2300 
Q 1875 2500 1487 2450 
Q 1100 2400 925 2075 
Q 750 1750 775 1387 
Q 800 1025 1025 787 
z
" id="SimHei-36" transform="scale(0.015625)"/>
       </defs>
       <use xlink:href="#SimHei-36"/>
       <use x="50" xlink:href="#SimHei-30"/>
      </g>
     </g>
    </g>
   </g>
   <g id="matplotlib.axis_2">
    <g id="ytick_1">
     <g id="line2d_8">
      <defs>
       <path d="M 0 0 
L -3.5 0 
" id="m6430a11d9c" style="stroke:#000000;stroke-width:0.8;"/>
      </defs>
      <g>
       <use style="stroke:#000000;stroke-width:0.8;" x="29.2" xlink:href="#m6430a11d9c" y="230.600114"/>
      </g>
     </g>
     <g id="text_8">
      <!-- 0.0 -->
      <g transform="translate(7.2 234.037614)scale(0.1 -0.1)">
       <defs>
        <path d="M 1075 125 
L 500 125 
L 500 675 
L 1075 675 
L 1075 125 
z
" id="SimHei-2e" transform="scale(0.015625)"/>
       </defs>
       <use xlink:href="#SimHei-30"/>
       <use x="50" xlink:href="#SimHei-2e"/>
       <use x="100" xlink:href="#SimHei-30"/>
      </g>
     </g>
    </g>
    <g id="ytick_2">
     <g id="line2d_9">
      <g>
       <use style="stroke:#000000;stroke-width:0.8;" x="29.2" xlink:href="#m6430a11d9c" y="191.065568"/>
      </g>
     </g>
     <g id="text_9">
      <!-- 0.2 -->
      <g transform="translate(7.2 194.503068)scale(0.1 -0.1)">
       <use xlink:href="#SimHei-30"/>
       <use x="50" xlink:href="#SimHei-2e"/>
       <use x="100" xlink:href="#SimHei-32"/>
      </g>
     </g>
    </g>
    <g id="ytick_3">
     <g id="line2d_10">
      <g>
       <use style="stroke:#000000;stroke-width:0.8;" x="29.2" xlink:href="#m6430a11d9c" y="151.531023"/>
      </g>
     </g>
     <g id="text_10">
      <!-- 0.4 -->
      <g transform="translate(7.2 154.968523)scale(0.1 -0.1)">
       <use xlink:href="#SimHei-30"/>
       <use x="50" xlink:href="#SimHei-2e"/>
       <use x="100" xlink:href="#SimHei-34"/>
      </g>
     </g>
    </g>
    <g id="ytick_4">
     <g id="line2d_11">
      <g>
       <use style="stroke:#000000;stroke-width:0.8;" x="29.2" xlink:href="#m6430a11d9c" y="111.996477"/>
      </g>
     </g>
     <g id="text_11">
      <!-- 0.6 -->
      <g transform="translate(7.2 115.433977)scale(0.1 -0.1)">
       <use xlink:href="#SimHei-30"/>
       <use x="50" xlink:href="#SimHei-2e"/>
       <use x="100" xlink:href="#SimHei-36"/>
      </g>
     </g>
    </g>
    <g id="ytick_5">
     <g id="line2d_12">
      <g>
       <use style="stroke:#000000;stroke-width:0.8;" x="29.2" xlink:href="#m6430a11d9c" y="72.461932"/>
      </g>
     </g>
     <g id="text_12">
      <!-- 0.8 -->
      <g transform="translate(7.2 75.899432)scale(0.1 -0.1)">
       <defs>
        <path d="M 175 1375 
Q 175 1675 325 1962 
Q 475 2250 825 2425 
Q 525 2600 425 2812 
Q 325 3025 312 3300 
Q 300 3575 387 3775 
Q 475 3975 650 4150 
Q 825 4325 1037 4387 
Q 1250 4450 1500 4450 
Q 1750 4450 1950 4400 
Q 2150 4350 2375 4187 
Q 2600 4025 2700 3725 
Q 2800 3425 2687 3025 
Q 2575 2625 2100 2400 
Q 2525 2275 2700 2012 
Q 2875 1750 2875 1375 
Q 2875 1000 2762 775 
Q 2650 550 2512 400 
Q 2375 250 2137 162 
Q 1900 75 1537 75 
Q 1175 75 912 162 
Q 650 250 475 425 
Q 300 600 237 837 
Q 175 1075 175 1375 
z
M 687 1400 
Q 675 1100 787 875 
Q 900 650 1200 587 
Q 1500 525 1825 600 
Q 2150 675 2275 950 
Q 2400 1225 2362 1500 
Q 2325 1775 2050 1962 
Q 1775 2150 1450 2125 
Q 1125 2100 912 1900 
Q 700 1700 687 1400 
z
M 775 3350 
Q 775 3100 950 2875 
Q 1125 2650 1500 2650 
Q 1875 2650 2062 2875 
Q 2250 3100 2237 3412 
Q 2225 3725 2012 3875 
Q 1800 4025 1437 4000 
Q 1075 3975 925 3787 
Q 775 3600 775 3350 
z
" id="SimHei-38" transform="scale(0.015625)"/>
       </defs>
       <use xlink:href="#SimHei-30"/>
       <use x="50" xlink:href="#SimHei-2e"/>
       <use x="100" xlink:href="#SimHei-38"/>
      </g>
     </g>
    </g>
    <g id="ytick_6">
     <g id="line2d_13">
      <g>
       <use style="stroke:#000000;stroke-width:0.8;" x="29.2" xlink:href="#m6430a11d9c" y="32.927386"/>
      </g>
     </g>
     <g id="text_13">
      <!-- 1.0 -->
      <g transform="translate(7.2 36.364886)scale(0.1 -0.1)">
       <use xlink:href="#SimHei-31"/>
       <use x="50" xlink:href="#SimHei-2e"/>
       <use x="100" xlink:href="#SimHei-30"/>
      </g>
     </g>
    </g>
   </g>
   <g id="patch_3">
    <path d="M 29.2 240.48375 
L 29.2 23.04375 
" style="fill:none;stroke:#000000;stroke-linecap:square;stroke-linejoin:miter;stroke-width:0.8;"/>
   </g>
   <g id="patch_4">
    <path d="M 364 240.48375 
L 364 23.04375 
" style="fill:none;stroke:#000000;stroke-linecap:square;stroke-linejoin:miter;stroke-width:0.8;"/>
   </g>
   <g id="patch_5">
    <path d="M 29.2 240.48375 
L 364 240.48375 
" style="fill:none;stroke:#000000;stroke-linecap:square;stroke-linejoin:miter;stroke-width:0.8;"/>
   </g>
   <g id="patch_6">
    <path d="M 29.2 23.04375 
L 364 23.04375 
" style="fill:none;stroke:#000000;stroke-linecap:square;stroke-linejoin:miter;stroke-width:0.8;"/>
   </g>
   <g id="text_14">
    <!-- 图四：mcycle数据集 -->
    <g transform="translate(142.6 17.04375)scale(0.12 -0.12)">
     <defs>
      <path d="M 5800 4975 
Q 5775 4350 5775 3600 
L 5775 925 
Q 5775 150 5800 -600 
L 5300 -600 
L 5300 -275 
L 1125 -275 
L 1125 -650 
L 625 -650 
Q 650 125 650 950 
L 650 3600 
Q 650 4325 625 4975 
L 5800 4975 
z
M 5300 150 
L 5300 4575 
L 1125 4575 
L 1125 150 
L 5300 150 
z
M 3225 4250 
Q 3075 4100 2950 3925 
L 4625 3925 
Q 4525 3700 4300 3375 
Q 4075 3050 3600 2600 
Q 4350 2225 5075 2150 
Q 4900 1925 4775 1675 
Q 3850 1950 3225 2350 
Q 2500 1875 1675 1650 
Q 1600 1875 1400 2075 
Q 2200 2200 2875 2600 
Q 2525 2925 2375 3150 
Q 2150 2900 1900 2650 
Q 1725 2850 1525 2950 
Q 1950 3300 2250 3737 
Q 2550 4175 2675 4475 
Q 2925 4350 3225 4250 
z
M 2450 1275 
Q 3550 950 4100 725 
Q 3975 525 3850 300 
Q 2825 725 2275 850 
Q 2375 1050 2450 1275 
z
M 2925 2050 
Q 3775 1700 4075 1600 
Q 3950 1400 3850 1150 
Q 3000 1550 2700 1650 
Q 2825 1825 2925 2050 
z
M 2625 3450 
Q 3000 3025 3275 2850 
Q 3600 3100 3875 3525 
L 2675 3525 
L 2625 3450 
z
" id="SimHei-56fe" transform="scale(0.015625)"/>
      <path d="M 5750 4750 
Q 5725 4125 5725 3425 
L 5725 950 
Q 5725 300 5750 -450 
L 5225 -450 
L 5225 25 
L 1150 25 
L 1150 -500 
L 625 -500 
Q 650 300 650 1000 
L 650 3425 
Q 650 4050 625 4750 
L 5750 4750 
z
M 5225 450 
L 5225 4350 
L 3975 4350 
L 3975 2225 
Q 3975 1950 4225 1950 
Q 4475 1950 5025 1975 
Q 4900 1700 4875 1500 
Q 4225 1500 3887 1512 
Q 3550 1525 3500 1975 
L 3500 4350 
L 2850 4350 
Q 2850 3050 2562 2412 
Q 2275 1775 1700 1200 
Q 1575 1375 1275 1525 
Q 1650 1800 1900 2175 
Q 2150 2550 2262 3000 
Q 2375 3450 2375 4350 
L 1150 4350 
L 1150 450 
L 5225 450 
z
" id="SimHei-56db" transform="scale(0.015625)"/>
      <path d="M 1200 2425 
L 2025 2425 
L 2025 1600 
L 1200 1600 
L 1200 2425 
z
M 1200 825 
L 2025 825 
L 2025 0 
L 1200 0 
L 1200 825 
z
" id="SimHei-ff1a" transform="scale(0.015625)"/>
      <path d="M 3050 125 
L 2550 125 
L 2550 2150 
Q 2550 2300 2500 2400 
Q 2450 2500 2300 2500 
Q 2125 2500 1975 2312 
Q 1825 2125 1825 1825 
L 1825 125 
L 1325 125 
L 1325 2150 
Q 1325 2300 1275 2400 
Q 1225 2500 1075 2500 
Q 900 2500 750 2312 
Q 600 2125 600 1825 
L 600 125 
L 100 125 
L 100 2925 
L 600 2925 
L 600 2550 
Q 725 2750 900 2862 
Q 1075 2975 1275 2975 
Q 1475 2975 1612 2862 
Q 1750 2750 1800 2550 
Q 1925 2750 2087 2862 
Q 2250 2975 2450 2975 
Q 2750 2975 2900 2812 
Q 3050 2650 3050 2350 
L 3050 125 
z
" id="SimHei-6d" transform="scale(0.015625)"/>
      <path d="M 2850 1250 
Q 2850 725 2487 400 
Q 2125 75 1575 75 
Q 1025 75 625 462 
Q 225 850 225 1525 
Q 225 2200 625 2587 
Q 1025 2975 1575 2975 
Q 2125 2975 2450 2687 
Q 2775 2400 2775 2000 
L 2225 2000 
Q 2200 2300 2012 2412 
Q 1825 2525 1575 2525 
Q 1275 2525 1025 2287 
Q 775 2050 775 1525 
Q 775 1000 1025 762 
Q 1275 525 1575 525 
Q 1900 525 2100 700 
Q 2300 875 2300 1250 
L 2850 1250 
z
" id="SimHei-63" transform="scale(0.015625)"/>
      <path d="M 2900 2925 
L 1750 -100 
Q 1650 -450 1450 -625 
Q 1250 -800 950 -800 
Q 825 -800 712 -787 
Q 600 -775 500 -725 
L 500 -225 
Q 600 -275 700 -300 
Q 800 -325 875 -325 
Q 1075 -325 1150 -262 
Q 1225 -200 1300 25 
L 200 2925 
L 750 2925 
L 1550 725 
L 1575 725 
L 2350 2925 
L 2900 2925 
z
" id="SimHei-79" transform="scale(0.015625)"/>
      <path d="M 1825 125 
L 1325 125 
L 1325 4400 
L 1825 4400 
L 1825 125 
z
" id="SimHei-6c" transform="scale(0.015625)"/>
      <path d="M 2850 1075 
Q 2800 625 2450 350 
Q 2100 75 1625 75 
Q 1025 75 637 462 
Q 250 850 250 1525 
Q 250 2200 637 2587 
Q 1025 2975 1625 2975 
Q 2150 2975 2487 2637 
Q 2825 2300 2825 1525 
L 800 1525 
Q 800 975 1037 750 
Q 1275 525 1625 525 
Q 1900 525 2075 662 
Q 2250 800 2300 1075 
L 2850 1075 
z
M 2250 1925 
Q 2200 2275 2025 2412 
Q 1850 2550 1575 2550 
Q 1325 2550 1125 2412 
Q 925 2275 825 1925 
L 2250 1925 
z
" id="SimHei-65" transform="scale(0.015625)"/>
      <path d="M 4525 4925 
Q 4475 4800 4400 4587 
Q 4325 4375 4175 3825 
L 5325 3825 
Q 5575 3825 5925 3850 
L 5925 3400 
Q 5650 3425 5500 3425 
Q 5500 3025 5362 2162 
Q 5225 1300 4875 675 
Q 5125 375 5437 137 
Q 5750 -100 6025 -200 
Q 5725 -425 5625 -625 
Q 5325 -450 5075 -225 
Q 4825 0 4575 325 
Q 4300 25 3987 -187 
Q 3675 -400 3200 -650 
Q 3075 -425 2850 -300 
Q 3225 -150 3650 125 
Q 4075 400 4300 675 
Q 4125 1025 3962 1425 
Q 3800 1825 3675 2475 
Q 3600 2275 3425 1950 
Q 3250 2050 3000 2150 
Q 3400 2850 3650 3675 
Q 3900 4500 3975 5100 
Q 4275 4975 4525 4925 
z
M 2100 2250 
Q 2000 2150 1875 1925 
L 3250 1925 
Q 3100 1300 2725 675 
Q 3125 525 3350 400 
Q 3225 225 3125 25 
Q 2900 175 2450 325 
Q 1950 -225 725 -650 
Q 600 -375 400 -275 
Q 1575 0 2000 475 
Q 1300 650 850 775 
Q 1000 1000 1250 1525 
Q 1000 1525 425 1500 
L 425 1950 
Q 900 1925 1400 1925 
Q 1500 2150 1550 2425 
Q 1825 2325 2100 2250 
z
M 1775 3950 
Q 1775 4550 1750 5100 
L 2250 5100 
Q 2225 4575 2225 3950 
Q 3075 3950 3425 3975 
L 3425 3525 
Q 3075 3550 2225 3550 
Q 2225 2825 2250 2425 
L 1750 2425 
Q 1775 2775 1775 3300 
Q 1650 3100 1300 2787 
Q 950 2475 650 2300 
Q 525 2525 275 2625 
Q 500 2700 875 2975 
Q 1250 3250 1450 3550 
Q 950 3550 500 3525 
L 500 3975 
Q 925 3950 1775 3950 
z
M 3975 3175 
Q 4200 1700 4600 1125 
Q 4850 1700 4937 2287 
Q 5025 2875 5050 3425 
L 4075 3425 
L 3975 3175 
z
M 1450 1000 
Q 1750 925 2275 800 
Q 2475 1050 2650 1525 
L 1725 1525 
Q 1600 1275 1450 1000 
z
M 3325 4825 
Q 3200 4625 3125 4450 
Q 3050 4275 2925 4025 
Q 2725 4125 2525 4175 
Q 2725 4500 2900 5000 
Q 3150 4875 3325 4825 
z
M 2575 3375 
Q 2900 3050 3200 2725 
Q 3050 2600 2875 2425 
Q 2525 2850 2300 3100 
Q 2450 3225 2575 3375 
z
M 925 5000 
Q 1275 4650 1500 4300 
L 1125 4075 
Q 950 4425 600 4725 
Q 825 4875 925 5000 
z
" id="SimHei-6570" transform="scale(0.015625)"/>
      <path d="M 5750 4775 
Q 5725 4550 5725 4225 
L 5725 3900 
Q 5725 3450 5750 3250 
L 3100 3250 
L 3100 2500 
L 4250 2500 
Q 4250 2725 4225 3175 
L 4700 3175 
Q 4675 2775 4675 2500 
L 5350 2500 
Q 5800 2500 6100 2525 
L 6100 2075 
Q 5800 2100 5375 2100 
L 4675 2100 
L 4675 1425 
L 5775 1425 
Q 5750 950 5750 800 
L 5750 175 
Q 5750 -225 5775 -575 
L 5325 -575 
L 5325 -225 
L 3675 -225 
L 3675 -600 
L 3225 -600 
Q 3250 -325 3250 100 
L 3250 825 
Q 3250 1075 3225 1425 
L 4250 1425 
L 4250 2100 
L 3075 2100 
Q 3050 1375 2887 737 
Q 2725 100 2425 -475 
Q 2200 -325 1950 -250 
Q 2250 150 2387 600 
Q 2525 1050 2600 1562 
Q 2675 2075 2675 2625 
L 2675 3575 
Q 2675 3975 2650 4775 
L 5750 4775 
z
M 1275 4425 
Q 1275 4775 1250 5075 
L 1750 5075 
Q 1725 4800 1725 4425 
L 1725 3775 
Q 1975 3775 2500 3800 
L 2500 3375 
Q 1975 3400 1725 3400 
L 1725 2450 
Q 2050 2625 2400 2850 
Q 2425 2650 2525 2475 
Q 2050 2200 1725 2000 
L 1725 175 
Q 1725 -300 1487 -400 
Q 1250 -500 775 -575 
Q 725 -325 600 -50 
Q 1025 -50 1150 -12 
Q 1275 25 1275 325 
L 1275 1800 
Q 900 1600 525 1325 
Q 450 1525 275 1800 
Q 775 1975 1275 2250 
L 1275 3400 
Q 800 3400 350 3375 
L 350 3800 
Q 800 3775 1275 3775 
L 1275 4425 
z
M 5300 3625 
L 5300 4400 
L 3100 4400 
L 3100 3625 
L 5300 3625 
z
M 5325 150 
L 5325 1075 
L 3675 1075 
L 3675 150 
L 5325 150 
z
" id="SimHei-636e" transform="scale(0.015625)"/>
      <path d="M 2275 4925 
Q 2125 4800 2025 4662 
Q 1925 4525 1850 4350 
L 4925 4350 
Q 5300 4350 5750 4375 
L 5750 3975 
L 3650 3975 
L 3650 3575 
L 4625 3575 
Q 4925 3575 5325 3600 
L 5325 3175 
Q 4925 3200 4625 3200 
L 3650 3200 
L 3650 2800 
L 4675 2800 
Q 5000 2800 5425 2825 
L 5425 2400 
Q 5000 2425 4675 2425 
L 3650 2425 
L 3650 2075 
L 4875 2075 
Q 5275 2075 5675 2100 
L 5675 1675 
Q 5300 1700 4900 1700 
L 1650 1700 
L 1650 1500 
L 1150 1500 
Q 1200 1950 1200 2325 
L 1200 3475 
Q 1050 3250 937 3125 
Q 825 3000 675 2825 
Q 500 3000 300 3125 
Q 475 3325 875 3825 
Q 1275 4325 1462 4650 
Q 1650 4975 1725 5225 
Q 1950 5100 2275 4925 
z
M 2975 1200 
Q 2975 1300 2950 1625 
L 3475 1625 
Q 3450 1275 3450 1200 
L 5050 1200 
Q 5500 1200 5925 1225 
L 5925 825 
L 4150 825 
Q 4500 525 4925 362 
Q 5350 200 6100 25 
Q 5875 -225 5775 -475 
Q 5275 -300 4962 -162 
Q 4650 -25 4387 137 
Q 4125 300 3950 462 
Q 3775 625 3575 825 
L 3450 825 
L 3450 250 
Q 3450 -275 3500 -650 
L 2950 -650 
Q 2975 -300 2975 250 
L 2975 825 
L 2875 825 
Q 2700 575 2475 375 
Q 2250 175 1987 12 
Q 1725 -150 1425 -300 
Q 1125 -450 700 -575 
Q 600 -325 400 -75 
Q 925 50 1475 262 
Q 2025 475 2300 825 
L 500 825 
L 500 1225 
Q 800 1200 1400 1200 
L 2975 1200 
z
M 3150 2800 
L 3150 3200 
L 1650 3200 
L 1650 2800 
L 3150 2800 
z
M 3150 3575 
L 3150 3975 
L 1650 3975 
L 1650 3575 
L 3150 3575 
z
M 3150 2075 
L 3150 2425 
L 1650 2425 
L 1650 2075 
L 3150 2075 
z
M 3450 5250 
Q 3575 5150 3712 5000 
Q 3850 4850 4000 4650 
Q 3850 4525 3575 4375 
Q 3425 4575 3325 4700 
Q 3225 4825 3075 4950 
Q 3275 5075 3450 5250 
z
" id="SimHei-96c6" transform="scale(0.015625)"/>
     </defs>
     <use xlink:href="#SimHei-56fe"/>
     <use x="100" xlink:href="#SimHei-56db"/>
     <use x="200" xlink:href="#SimHei-ff1a"/>
     <use x="300" xlink:href="#SimHei-6d"/>
     <use x="350" xlink:href="#SimHei-63"/>
     <use x="400" xlink:href="#SimHei-79"/>
     <use x="450" xlink:href="#SimHei-63"/>
     <use x="500" xlink:href="#SimHei-6c"/>
     <use x="550" xlink:href="#SimHei-65"/>
     <use x="600" xlink:href="#SimHei-6570"/>
     <use x="700" xlink:href="#SimHei-636e"/>
     <use x="800" xlink:href="#SimHei-96c6"/>
    </g>
   </g>
  </g>
 </g>
 <defs>
  <clipPath id="p68051eca83">
   <rect height="217.44" width="334.8" x="29.2" y="23.04375"/>
  </clipPath>
 </defs>
</svg>
