<?xml version="1.0" encoding="utf-8" standalone="no"?>
<!DOCTYPE svg PUBLIC "-//W3C//DTD SVG 1.1//EN"
  "http://www.w3.org/Graphics/SVG/1.1/DTD/svg11.dtd">
<svg height="262.43375pt" version="1.1" viewBox="0 0 374.21502 262.43375" width="374.21502pt" xmlns="http://www.w3.org/2000/svg" xmlns:xlink="http://www.w3.org/1999/xlink">
 <metadata>
  <rdf:RDF xmlns:cc="http://creativecommons.org/ns#" xmlns:dc="http://purl.org/dc/elements/1.1/" xmlns:rdf="http://www.w3.org/1999/02/22-rdf-syntax-ns#">
   <cc:Work>
    <dc:type rdf:resource="http://purl.org/dc/dcmitype/StillImage"/>
    <dc:date>2022-12-03T18:26:07.622671</dc:date>
    <dc:format>image/svg+xml</dc:format>
    <dc:creator>
     <cc:Agent>
      <dc:title>Matplotlib v3.4.3, https://matplotlib.org/</dc:title>
     </cc:Agent>
    </dc:creator>
   </cc:Work>
  </rdf:RDF>
 </metadata>
 <defs>
  <style type="text/css">*{stroke-linecap:butt;stroke-linejoin:round;}</style>
 </defs>
 <g id="figure_1">
  <g id="patch_1">
   <path d="M 0 262.43375 
L 374.21502 262.43375 
L 374.21502 0 
L 0 0 
z
" style="fill:none;"/>
  </g>
  <g id="axes_1">
   <g id="patch_2">
    <path d="M 29.2 240.10875 
L 364 240.10875 
L 364 22.66875 
L 29.2 22.66875 
z
" style="fill:#ffffff;"/>
   </g>
   <g id="PathCollection_1">
    <defs>
     <path d="M 0 3 
C 0.795609 3 1.55874 2.683901 2.12132 2.12132 
C 2.683901 1.55874 3 0.795609 3 0 
C 3 -0.795609 2.683901 -1.55874 2.12132 -2.12132 
C 1.55874 -2.683901 0.795609 -3 0 -3 
C -0.795609 -3 -1.55874 -2.683901 -2.12132 -2.12132 
C -2.683901 -1.55874 -3 -0.795609 -3 0 
C -3 0.795609 -2.683901 1.55874 -2.12132 2.12132 
C -1.55874 2.683901 -0.795609 3 0 3 
z
" id="m6cd86db4ea" style="stroke:#87ceeb;"/>
    </defs>
    <g clip-path="url(#pb908ae397a)">
     <use style="fill:#87ceeb;stroke:#87ceeb;" x="44.418182" xlink:href="#m6cd86db4ea" y="103.487576"/>
     <use style="fill:#87ceeb;stroke:#87ceeb;" x="45.520949" xlink:href="#m6cd86db4ea" y="104.717119"/>
     <use style="fill:#87ceeb;stroke:#87ceeb;" x="48.829249" xlink:href="#m6cd86db4ea" y="106.041242"/>
     <use style="fill:#87ceeb;stroke:#87ceeb;" x="51.034783" xlink:href="#m6cd86db4ea" y="103.487576"/>
     <use style="fill:#87ceeb;stroke:#87ceeb;" x="53.240316" xlink:href="#m6cd86db4ea" y="106.041242"/>
     <use style="fill:#87ceeb;stroke:#87ceeb;" x="65.370751" xlink:href="#m6cd86db4ea" y="106.041242"/>
     <use style="fill:#87ceeb;stroke:#87ceeb;" x="67.576285" xlink:href="#m6cd86db4ea" y="106.041242"/>
     <use style="fill:#87ceeb;stroke:#87ceeb;" x="68.679051" xlink:href="#m6cd86db4ea" y="104.717119"/>
     <use style="fill:#87ceeb;stroke:#87ceeb;" x="74.192885" xlink:href="#m6cd86db4ea" y="106.041242"/>
     <use style="fill:#87ceeb;stroke:#87ceeb;" x="76.398419" xlink:href="#m6cd86db4ea" y="106.041242"/>
     <use style="fill:#87ceeb;stroke:#87ceeb;" x="79.706719" xlink:href="#m6cd86db4ea" y="104.717119"/>
     <use style="fill:#87ceeb;stroke:#87ceeb;" x="79.706719" xlink:href="#m6cd86db4ea" y="106.041242"/>
     <use style="fill:#87ceeb;stroke:#87ceeb;" x="84.117787" xlink:href="#m6cd86db4ea" y="106.041242"/>
     <use style="fill:#87ceeb;stroke:#87ceeb;" x="86.32332" xlink:href="#m6cd86db4ea" y="106.041242"/>
     <use style="fill:#87ceeb;stroke:#87ceeb;" x="87.426087" xlink:href="#m6cd86db4ea" y="108.594909"/>
     <use style="fill:#87ceeb;stroke:#87ceeb;" x="89.631621" xlink:href="#m6cd86db4ea" y="106.041242"/>
     <use style="fill:#87ceeb;stroke:#87ceeb;" x="91.837154" xlink:href="#m6cd86db4ea" y="108.594909"/>
     <use style="fill:#87ceeb;stroke:#87ceeb;" x="94.042688" xlink:href="#m6cd86db4ea" y="103.487576"/>
     <use style="fill:#87ceeb;stroke:#87ceeb;" x="103.967589" xlink:href="#m6cd86db4ea" y="106.041242"/>
     <use style="fill:#87ceeb;stroke:#87ceeb;" x="106.173123" xlink:href="#m6cd86db4ea" y="106.041242"/>
     <use style="fill:#87ceeb;stroke:#87ceeb;" x="107.275889" xlink:href="#m6cd86db4ea" y="103.487576"/>
     <use style="fill:#87ceeb;stroke:#87ceeb;" x="111.686957" xlink:href="#m6cd86db4ea" y="116.066749"/>
     <use style="fill:#87ceeb;stroke:#87ceeb;" x="111.686957" xlink:href="#m6cd86db4ea" y="108.594909"/>
     <use style="fill:#87ceeb;stroke:#87ceeb;" x="111.686957" xlink:href="#m6cd86db4ea" y="108.594909"/>
     <use style="fill:#87ceeb;stroke:#87ceeb;" x="111.686957" xlink:href="#m6cd86db4ea" y="112.283539"/>
     <use style="fill:#87ceeb;stroke:#87ceeb;" x="111.686957" xlink:href="#m6cd86db4ea" y="118.620416"/>
     <use style="fill:#87ceeb;stroke:#87ceeb;" x="111.686957" xlink:href="#m6cd86db4ea" y="125.051873"/>
     <use style="fill:#87ceeb;stroke:#87ceeb;" x="112.789723" xlink:href="#m6cd86db4ea" y="106.041242"/>
     <use style="fill:#87ceeb;stroke:#87ceeb;" x="116.098024" xlink:href="#m6cd86db4ea" y="125.051873"/>
     <use style="fill:#87ceeb;stroke:#87ceeb;" x="116.098024" xlink:href="#m6cd86db4ea" y="133.847837"/>
     <use style="fill:#87ceeb;stroke:#87ceeb;" x="116.098024" xlink:href="#m6cd86db4ea" y="154.088011"/>
     <use style="fill:#87ceeb;stroke:#87ceeb;" x="116.098024" xlink:href="#m6cd86db4ea" y="155.412134"/>
     <use style="fill:#87ceeb;stroke:#87ceeb;" x="117.200791" xlink:href="#m6cd86db4ea" y="141.508837"/>
     <use style="fill:#87ceeb;stroke:#87ceeb;" x="117.200791" xlink:href="#m6cd86db4ea" y="123.82233"/>
     <use style="fill:#87ceeb;stroke:#87ceeb;" x="118.303557" xlink:href="#m6cd86db4ea" y="123.82233"/>
     <use style="fill:#87ceeb;stroke:#87ceeb;" x="118.303557" xlink:href="#m6cd86db4ea" y="151.534344"/>
     <use style="fill:#87ceeb;stroke:#87ceeb;" x="119.406324" xlink:href="#m6cd86db4ea" y="144.062504"/>
     <use style="fill:#87ceeb;stroke:#87ceeb;" x="119.406324" xlink:href="#m6cd86db4ea" y="128.835083"/>
     <use style="fill:#87ceeb;stroke:#87ceeb;" x="120.509091" xlink:href="#m6cd86db4ea" y="123.82233"/>
     <use style="fill:#87ceeb;stroke:#87ceeb;" x="120.509091" xlink:href="#m6cd86db4ea" y="151.534344"/>
     <use style="fill:#87ceeb;stroke:#87ceeb;" x="120.509091" xlink:href="#m6cd86db4ea" y="161.843591"/>
     <use style="fill:#87ceeb;stroke:#87ceeb;" x="121.611858" xlink:href="#m6cd86db4ea" y="108.594909"/>
     <use style="fill:#87ceeb;stroke:#87ceeb;" x="121.611858" xlink:href="#m6cd86db4ea" y="179.530098"/>
     <use style="fill:#87ceeb;stroke:#87ceeb;" x="122.714625" xlink:href="#m6cd86db4ea" y="159.289924"/>
     <use style="fill:#87ceeb;stroke:#87ceeb;" x="123.817391" xlink:href="#m6cd86db4ea" y="170.639555"/>
     <use style="fill:#87ceeb;stroke:#87ceeb;" x="123.817391" xlink:href="#m6cd86db4ea" y="189.650185"/>
     <use style="fill:#87ceeb;stroke:#87ceeb;" x="123.817391" xlink:href="#m6cd86db4ea" y="176.976432"/>
     <use style="fill:#87ceeb;stroke:#87ceeb;" x="128.228458" xlink:href="#m6cd86db4ea" y="138.95517"/>
     <use style="fill:#87ceeb;stroke:#87ceeb;" x="128.228458" xlink:href="#m6cd86db4ea" y="184.448272"/>
     <use style="fill:#87ceeb;stroke:#87ceeb;" x="128.228458" xlink:href="#m6cd86db4ea" y="219.915866"/>
     <use style="fill:#87ceeb;stroke:#87ceeb;" x="128.228458" xlink:href="#m6cd86db4ea" y="199.864853"/>
     <use style="fill:#87ceeb;stroke:#87ceeb;" x="129.331225" xlink:href="#m6cd86db4ea" y="197.216606"/>
     <use style="fill:#87ceeb;stroke:#87ceeb;" x="129.331225" xlink:href="#m6cd86db4ea" y="202.229359"/>
     <use style="fill:#87ceeb;stroke:#87ceeb;" x="133.742292" xlink:href="#m6cd86db4ea" y="209.890359"/>
     <use style="fill:#87ceeb;stroke:#87ceeb;" x="133.742292" xlink:href="#m6cd86db4ea" y="151.534344"/>
     <use style="fill:#87ceeb;stroke:#87ceeb;" x="137.050593" xlink:href="#m6cd86db4ea" y="219.915866"/>
     <use style="fill:#87ceeb;stroke:#87ceeb;" x="138.15336" xlink:href="#m6cd86db4ea" y="184.448272"/>
     <use style="fill:#87ceeb;stroke:#87ceeb;" x="138.15336" xlink:href="#m6cd86db4ea" y="171.869098"/>
     <use style="fill:#87ceeb;stroke:#87ceeb;" x="139.256126" xlink:href="#m6cd86db4ea" y="223.793656"/>
     <use style="fill:#87ceeb;stroke:#87ceeb;" x="142.564427" xlink:href="#m6cd86db4ea" y="219.915866"/>
     <use style="fill:#87ceeb;stroke:#87ceeb;" x="143.667194" xlink:href="#m6cd86db4ea" y="214.997693"/>
     <use style="fill:#87ceeb;stroke:#87ceeb;" x="148.078261" xlink:href="#m6cd86db4ea" y="230.225114"/>
     <use style="fill:#87ceeb;stroke:#87ceeb;" x="149.181028" xlink:href="#m6cd86db4ea" y="199.864853"/>
     <use style="fill:#87ceeb;stroke:#87ceeb;" x="151.386561" xlink:href="#m6cd86db4ea" y="206.012569"/>
     <use style="fill:#87ceeb;stroke:#87ceeb;" x="152.489328" xlink:href="#m6cd86db4ea" y="219.915866"/>
     <use style="fill:#87ceeb;stroke:#87ceeb;" x="159.105929" xlink:href="#m6cd86db4ea" y="219.915866"/>
     <use style="fill:#87ceeb;stroke:#87ceeb;" x="160.208696" xlink:href="#m6cd86db4ea" y="225.0232"/>
     <use style="fill:#87ceeb;stroke:#87ceeb;" x="163.516996" xlink:href="#m6cd86db4ea" y="209.890359"/>
     <use style="fill:#87ceeb;stroke:#87ceeb;" x="164.619763" xlink:href="#m6cd86db4ea" y="193.433395"/>
     <use style="fill:#87ceeb;stroke:#87ceeb;" x="164.619763" xlink:href="#m6cd86db4ea" y="180.854222"/>
     <use style="fill:#87ceeb;stroke:#87ceeb;" x="166.825296" xlink:href="#m6cd86db4ea" y="154.088011"/>
     <use style="fill:#87ceeb;stroke:#87ceeb;" x="169.03083" xlink:href="#m6cd86db4ea" y="164.397258"/>
     <use style="fill:#87ceeb;stroke:#87ceeb;" x="169.03083" xlink:href="#m6cd86db4ea" y="157.965801"/>
     <use style="fill:#87ceeb;stroke:#87ceeb;" x="171.236364" xlink:href="#m6cd86db4ea" y="171.869098"/>
     <use style="fill:#87ceeb;stroke:#87ceeb;" x="171.236364" xlink:href="#m6cd86db4ea" y="145.386627"/>
     <use style="fill:#87ceeb;stroke:#87ceeb;" x="172.33913" xlink:href="#m6cd86db4ea" y="128.835083"/>
     <use style="fill:#87ceeb;stroke:#87ceeb;" x="174.544664" xlink:href="#m6cd86db4ea" y="108.594909"/>
     <use style="fill:#87ceeb;stroke:#87ceeb;" x="175.647431" xlink:href="#m6cd86db4ea" y="204.783026"/>
     <use style="fill:#87ceeb;stroke:#87ceeb;" x="175.647431" xlink:href="#m6cd86db4ea" y="123.82233"/>
     <use style="fill:#87ceeb;stroke:#87ceeb;" x="176.750198" xlink:href="#m6cd86db4ea" y="165.532221"/>
     <use style="fill:#87ceeb;stroke:#87ceeb;" x="180.058498" xlink:href="#m6cd86db4ea" y="118.620416"/>
     <use style="fill:#87ceeb;stroke:#87ceeb;" x="181.161265" xlink:href="#m6cd86db4ea" y="146.616171"/>
     <use style="fill:#87ceeb;stroke:#87ceeb;" x="181.161265" xlink:href="#m6cd86db4ea" y="126.375997"/>
     <use style="fill:#87ceeb;stroke:#87ceeb;" x="181.161265" xlink:href="#m6cd86db4ea" y="94.502452"/>
     <use style="fill:#87ceeb;stroke:#87ceeb;" x="183.366798" xlink:href="#m6cd86db4ea" y="99.704365"/>
     <use style="fill:#87ceeb;stroke:#87ceeb;" x="186.675099" xlink:href="#m6cd86db4ea" y="92.137945"/>
     <use style="fill:#87ceeb;stroke:#87ceeb;" x="187.777866" xlink:href="#m6cd86db4ea" y="123.82233"/>
     <use style="fill:#87ceeb;stroke:#87ceeb;" x="187.777866" xlink:href="#m6cd86db4ea" y="68.019981"/>
     <use style="fill:#87ceeb;stroke:#87ceeb;" x="188.880632" xlink:href="#m6cd86db4ea" y="59.129437"/>
     <use style="fill:#87ceeb;stroke:#87ceeb;" x="193.2917" xlink:href="#m6cd86db4ea" y="119.944539"/>
     <use style="fill:#87ceeb;stroke:#87ceeb;" x="197.702767" xlink:href="#m6cd86db4ea" y="69.249524"/>
     <use style="fill:#87ceeb;stroke:#87ceeb;" x="202.113834" xlink:href="#m6cd86db4ea" y="32.552386"/>
     <use style="fill:#87ceeb;stroke:#87ceeb;" x="203.216601" xlink:href="#m6cd86db4ea" y="95.826575"/>
     <use style="fill:#87ceeb;stroke:#87ceeb;" x="207.627668" xlink:href="#m6cd86db4ea" y="51.563017"/>
     <use style="fill:#87ceeb;stroke:#87ceeb;" x="207.627668" xlink:href="#m6cd86db4ea" y="57.899894"/>
     <use style="fill:#87ceeb;stroke:#87ceeb;" x="212.038735" xlink:href="#m6cd86db4ea" y="59.129437"/>
     <use style="fill:#87ceeb;stroke:#87ceeb;" x="215.347036" xlink:href="#m6cd86db4ea" y="88.354735"/>
     <use style="fill:#87ceeb;stroke:#87ceeb;" x="217.552569" xlink:href="#m6cd86db4ea" y="60.358981"/>
     <use style="fill:#87ceeb;stroke:#87ceeb;" x="220.86087" xlink:href="#m6cd86db4ea" y="102.258032"/>
     <use style="fill:#87ceeb;stroke:#87ceeb;" x="223.066403" xlink:href="#m6cd86db4ea" y="32.552386"/>
     <use style="fill:#87ceeb;stroke:#87ceeb;" x="225.271937" xlink:href="#m6cd86db4ea" y="118.620416"/>
     <use style="fill:#87ceeb;stroke:#87ceeb;" x="225.271937" xlink:href="#m6cd86db4ea" y="155.412134"/>
     <use style="fill:#87ceeb;stroke:#87ceeb;" x="226.374704" xlink:href="#m6cd86db4ea" y="37.65972"/>
     <use style="fill:#87ceeb;stroke:#87ceeb;" x="227.47747" xlink:href="#m6cd86db4ea" y="70.573648"/>
     <use style="fill:#87ceeb;stroke:#87ceeb;" x="227.47747" xlink:href="#m6cd86db4ea" y="73.127315"/>
     <use style="fill:#87ceeb;stroke:#87ceeb;" x="230.785771" xlink:href="#m6cd86db4ea" y="138.95517"/>
     <use style="fill:#87ceeb;stroke:#87ceeb;" x="230.785771" xlink:href="#m6cd86db4ea" y="81.923278"/>
     <use style="fill:#87ceeb;stroke:#87ceeb;" x="240.710672" xlink:href="#m6cd86db4ea" y="59.129437"/>
     <use style="fill:#87ceeb;stroke:#87ceeb;" x="240.710672" xlink:href="#m6cd86db4ea" y="93.367489"/>
     <use style="fill:#87ceeb;stroke:#87ceeb;" x="247.327273" xlink:href="#m6cd86db4ea" y="98.380242"/>
     <use style="fill:#87ceeb;stroke:#87ceeb;" x="248.43004" xlink:href="#m6cd86db4ea" y="104.717119"/>
     <use style="fill:#87ceeb;stroke:#87ceeb;" x="251.73834" xlink:href="#m6cd86db4ea" y="123.82233"/>
     <use style="fill:#87ceeb;stroke:#87ceeb;" x="253.943874" xlink:href="#m6cd86db4ea" y="116.066749"/>
     <use style="fill:#87ceeb;stroke:#87ceeb;" x="260.560474" xlink:href="#m6cd86db4ea" y="74.356858"/>
     <use style="fill:#87ceeb;stroke:#87ceeb;" x="260.560474" xlink:href="#m6cd86db4ea" y="113.607663"/>
     <use style="fill:#87ceeb;stroke:#87ceeb;" x="264.971542" xlink:href="#m6cd86db4ea" y="75.680981"/>
     <use style="fill:#87ceeb;stroke:#87ceeb;" x="267.177075" xlink:href="#m6cd86db4ea" y="103.487576"/>
     <use style="fill:#87ceeb;stroke:#87ceeb;" x="267.177075" xlink:href="#m6cd86db4ea" y="113.607663"/>
     <use style="fill:#87ceeb;stroke:#87ceeb;" x="268.279842" xlink:href="#m6cd86db4ea" y="89.584278"/>
     <use style="fill:#87ceeb;stroke:#87ceeb;" x="273.793676" xlink:href="#m6cd86db4ea" y="104.717119"/>
     <use style="fill:#87ceeb;stroke:#87ceeb;" x="275.999209" xlink:href="#m6cd86db4ea" y="103.487576"/>
     <use style="fill:#87ceeb;stroke:#87ceeb;" x="279.30751" xlink:href="#m6cd86db4ea" y="93.367489"/>
     <use style="fill:#87ceeb;stroke:#87ceeb;" x="288.129644" xlink:href="#m6cd86db4ea" y="93.367489"/>
     <use style="fill:#87ceeb;stroke:#87ceeb;" x="294.746245" xlink:href="#m6cd86db4ea" y="128.835083"/>
     <use style="fill:#87ceeb;stroke:#87ceeb;" x="294.746245" xlink:href="#m6cd86db4ea" y="117.390873"/>
     <use style="fill:#87ceeb;stroke:#87ceeb;" x="300.260079" xlink:href="#m6cd86db4ea" y="116.066749"/>
     <use style="fill:#87ceeb;stroke:#87ceeb;" x="310.18498" xlink:href="#m6cd86db4ea" y="103.487576"/>
     <use style="fill:#87ceeb;stroke:#87ceeb;" x="317.904348" xlink:href="#m6cd86db4ea" y="93.367489"/>
     <use style="fill:#87ceeb;stroke:#87ceeb;" x="324.520949" xlink:href="#m6cd86db4ea" y="117.390873"/>
     <use style="fill:#87ceeb;stroke:#87ceeb;" x="334.44585" xlink:href="#m6cd86db4ea" y="106.041242"/>
     <use style="fill:#87ceeb;stroke:#87ceeb;" x="334.44585" xlink:href="#m6cd86db4ea" y="93.367489"/>
     <use style="fill:#87ceeb;stroke:#87ceeb;" x="336.651383" xlink:href="#m6cd86db4ea" y="106.041242"/>
     <use style="fill:#87ceeb;stroke:#87ceeb;" x="348.781818" xlink:href="#m6cd86db4ea" y="93.367489"/>
    </g>
   </g>
   <g id="matplotlib.axis_1">
    <g id="xtick_1">
     <g id="line2d_1">
      <defs>
       <path d="M 0 0 
L 0 3.5 
" id="m666cf49f3d" style="stroke:#000000;stroke-width:0.8;"/>
      </defs>
      <g>
       <use style="stroke:#000000;stroke-width:0.8;" x="31.18498" xlink:href="#m666cf49f3d" y="240.10875"/>
      </g>
     </g>
     <g id="text_1">
      <!-- 0 -->
      <g transform="translate(28.68498 253.98375)scale(0.1 -0.1)">
       <defs>
        <path d="M 225 2537 
Q 250 3200 412 3587 
Q 575 3975 875 4225 
Q 1175 4475 1612 4475 
Q 2050 4475 2375 4112 
Q 2700 3750 2800 3200 
Q 2900 2650 2862 1937 
Q 2825 1225 2612 775 
Q 2400 325 1975 150 
Q 1550 -25 1125 187 
Q 700 400 525 750 
Q 350 1100 275 1487 
Q 200 1875 225 2537 
z
M 750 2687 
Q 675 2000 800 1462 
Q 925 925 1212 700 
Q 1500 475 1800 612 
Q 2100 750 2237 1162 
Q 2375 1575 2375 2062 
Q 2375 2550 2337 2950 
Q 2300 3350 2112 3675 
Q 1925 4000 1612 4012 
Q 1300 4025 1062 3700 
Q 825 3375 750 2687 
z
" id="SimHei-30" transform="scale(0.015625)"/>
       </defs>
       <use xlink:href="#SimHei-30"/>
      </g>
     </g>
    </g>
    <g id="xtick_2">
     <g id="line2d_2">
      <g>
       <use style="stroke:#000000;stroke-width:0.8;" x="86.32332" xlink:href="#m666cf49f3d" y="240.10875"/>
      </g>
     </g>
     <g id="text_2">
      <!-- 10 -->
      <g transform="translate(81.32332 253.98375)scale(0.1 -0.1)">
       <defs>
        <path d="M 1400 3600 
Q 1075 3275 575 2975 
L 575 3450 
Q 1200 3875 1600 4450 
L 1900 4450 
L 1900 150 
L 1400 150 
L 1400 3600 
z
" id="SimHei-31" transform="scale(0.015625)"/>
       </defs>
       <use xlink:href="#SimHei-31"/>
       <use x="50" xlink:href="#SimHei-30"/>
      </g>
     </g>
    </g>
    <g id="xtick_3">
     <g id="line2d_3">
      <g>
       <use style="stroke:#000000;stroke-width:0.8;" x="141.46166" xlink:href="#m666cf49f3d" y="240.10875"/>
      </g>
     </g>
     <g id="text_3">
      <!-- 20 -->
      <g transform="translate(136.46166 253.98375)scale(0.1 -0.1)">
       <defs>
        <path d="M 300 250 
Q 325 625 650 925 
Q 975 1225 1475 1862 
Q 1975 2500 2125 2850 
Q 2275 3200 2237 3450 
Q 2200 3700 2000 3862 
Q 1800 4025 1537 4000 
Q 1275 3975 1037 3800 
Q 800 3625 675 3275 
L 200 3350 
Q 400 3925 712 4187 
Q 1025 4450 1450 4475 
Q 1700 4500 1900 4462 
Q 2100 4425 2312 4287 
Q 2525 4150 2662 3875 
Q 2800 3600 2762 3212 
Q 2725 2825 2375 2287 
Q 2025 1750 1025 600 
L 2825 600 
L 2825 150 
L 300 150 
L 300 250 
z
" id="SimHei-32" transform="scale(0.015625)"/>
       </defs>
       <use xlink:href="#SimHei-32"/>
       <use x="50" xlink:href="#SimHei-30"/>
      </g>
     </g>
    </g>
    <g id="xtick_4">
     <g id="line2d_4">
      <g>
       <use style="stroke:#000000;stroke-width:0.8;" x="196.6" xlink:href="#m666cf49f3d" y="240.10875"/>
      </g>
     </g>
     <g id="text_4">
      <!-- 30 -->
      <g transform="translate(191.6 253.98375)scale(0.1 -0.1)">
       <defs>
        <path d="M 250 1225 
L 700 1300 
Q 800 975 1025 762 
Q 1250 550 1587 562 
Q 1925 575 2125 837 
Q 2325 1100 2300 1437 
Q 2275 1775 2037 1962 
Q 1800 2150 1275 2225 
L 1275 2550 
Q 1800 2600 2037 2825 
Q 2275 3050 2250 3412 
Q 2225 3775 1925 3937 
Q 1625 4100 1287 3975 
Q 950 3850 750 3275 
L 300 3350 
Q 450 3800 712 4100 
Q 975 4400 1425 4450 
Q 1875 4500 2212 4337 
Q 2550 4175 2687 3837 
Q 2825 3500 2725 3100 
Q 2625 2700 2150 2400 
Q 2500 2250 2687 1950 
Q 2875 1650 2812 1162 
Q 2750 675 2375 375 
Q 2000 75 1525 87 
Q 1050 100 700 387 
Q 350 675 250 1225 
z
" id="SimHei-33" transform="scale(0.015625)"/>
       </defs>
       <use xlink:href="#SimHei-33"/>
       <use x="50" xlink:href="#SimHei-30"/>
      </g>
     </g>
    </g>
    <g id="xtick_5">
     <g id="line2d_5">
      <g>
       <use style="stroke:#000000;stroke-width:0.8;" x="251.73834" xlink:href="#m666cf49f3d" y="240.10875"/>
      </g>
     </g>
     <g id="text_5">
      <!-- 40 -->
      <g transform="translate(246.73834 253.98375)scale(0.1 -0.1)">
       <defs>
        <path d="M 2000 1100 
L 75 1100 
L 75 1525 
L 2100 4450 
L 2475 4450 
L 2475 1525 
L 3075 1525 
L 3075 1100 
L 2475 1100 
L 2475 150 
L 2000 150 
L 2000 1100 
z
M 2000 1525 
L 2000 3500 
L 600 1525 
L 2000 1525 
z
" id="SimHei-34" transform="scale(0.015625)"/>
       </defs>
       <use xlink:href="#SimHei-34"/>
       <use x="50" xlink:href="#SimHei-30"/>
      </g>
     </g>
    </g>
    <g id="xtick_6">
     <g id="line2d_6">
      <g>
       <use style="stroke:#000000;stroke-width:0.8;" x="306.87668" xlink:href="#m666cf49f3d" y="240.10875"/>
      </g>
     </g>
     <g id="text_6">
      <!-- 50 -->
      <g transform="translate(301.87668 253.98375)scale(0.1 -0.1)">
       <defs>
        <path d="M 550 1325 
Q 725 650 1150 575 
Q 1575 500 1837 662 
Q 2100 825 2212 1087 
Q 2325 1350 2312 1675 
Q 2300 2000 2137 2225 
Q 1975 2450 1725 2525 
Q 1475 2600 1162 2525 
Q 850 2450 650 2175 
L 225 2225 
Q 275 2375 700 4375 
L 2675 4375 
L 2675 3925 
L 1075 3925 
Q 950 3250 825 2850 
Q 1200 3025 1525 3012 
Q 1850 3000 2150 2862 
Q 2450 2725 2587 2487 
Q 2725 2250 2787 2012 
Q 2850 1775 2837 1500 
Q 2825 1225 2725 937 
Q 2625 650 2425 462 
Q 2225 275 1937 162 
Q 1650 50 1275 75 
Q 900 100 562 350 
Q 225 600 100 1200 
L 550 1325 
z
" id="SimHei-35" transform="scale(0.015625)"/>
       </defs>
       <use xlink:href="#SimHei-35"/>
       <use x="50" xlink:href="#SimHei-30"/>
      </g>
     </g>
    </g>
    <g id="xtick_7">
     <g id="line2d_7">
      <g>
       <use style="stroke:#000000;stroke-width:0.8;" x="362.01502" xlink:href="#m666cf49f3d" y="240.10875"/>
      </g>
     </g>
     <g id="text_7">
      <!-- 60 -->
      <g transform="translate(357.01502 253.98375)scale(0.1 -0.1)">
       <defs>
        <path d="M 250 1612 
Q 275 1975 387 2225 
Q 500 2475 725 2850 
L 1750 4450 
L 2325 4450 
L 1275 2800 
Q 1950 2975 2350 2750 
Q 2750 2525 2887 2237 
Q 3025 1950 3037 1612 
Q 3050 1275 2937 950 
Q 2825 625 2537 362 
Q 2250 100 1737 75 
Q 1225 50 862 262 
Q 500 475 362 862 
Q 225 1250 250 1612 
z
M 1025 787 
Q 1250 550 1625 525 
Q 2000 500 2250 775 
Q 2500 1050 2500 1575 
Q 2500 2100 2187 2300 
Q 1875 2500 1487 2450 
Q 1100 2400 925 2075 
Q 750 1750 775 1387 
Q 800 1025 1025 787 
z
" id="SimHei-36" transform="scale(0.015625)"/>
       </defs>
       <use xlink:href="#SimHei-36"/>
       <use x="50" xlink:href="#SimHei-30"/>
      </g>
     </g>
    </g>
   </g>
   <g id="matplotlib.axis_2">
    <g id="ytick_1">
     <g id="line2d_8">
      <defs>
       <path d="M 0 0 
L -3.5 0 
" id="me5541a5049" style="stroke:#000000;stroke-width:0.8;"/>
      </defs>
      <g>
       <use style="stroke:#000000;stroke-width:0.8;" x="29.2" xlink:href="#me5541a5049" y="230.225114"/>
      </g>
     </g>
     <g id="text_8">
      <!-- 0.0 -->
      <g transform="translate(7.2 233.662614)scale(0.1 -0.1)">
       <defs>
        <path d="M 1075 125 
L 500 125 
L 500 675 
L 1075 675 
L 1075 125 
z
" id="SimHei-2e" transform="scale(0.015625)"/>
       </defs>
       <use xlink:href="#SimHei-30"/>
       <use x="50" xlink:href="#SimHei-2e"/>
       <use x="100" xlink:href="#SimHei-30"/>
      </g>
     </g>
    </g>
    <g id="ytick_2">
     <g id="line2d_9">
      <g>
       <use style="stroke:#000000;stroke-width:0.8;" x="29.2" xlink:href="#me5541a5049" y="190.690568"/>
      </g>
     </g>
     <g id="text_9">
      <!-- 0.2 -->
      <g transform="translate(7.2 194.128068)scale(0.1 -0.1)">
       <use xlink:href="#SimHei-30"/>
       <use x="50" xlink:href="#SimHei-2e"/>
       <use x="100" xlink:href="#SimHei-32"/>
      </g>
     </g>
    </g>
    <g id="ytick_3">
     <g id="line2d_10">
      <g>
       <use style="stroke:#000000;stroke-width:0.8;" x="29.2" xlink:href="#me5541a5049" y="151.156023"/>
      </g>
     </g>
     <g id="text_10">
      <!-- 0.4 -->
      <g transform="translate(7.2 154.593523)scale(0.1 -0.1)">
       <use xlink:href="#SimHei-30"/>
       <use x="50" xlink:href="#SimHei-2e"/>
       <use x="100" xlink:href="#SimHei-34"/>
      </g>
     </g>
    </g>
    <g id="ytick_4">
     <g id="line2d_11">
      <g>
       <use style="stroke:#000000;stroke-width:0.8;" x="29.2" xlink:href="#me5541a5049" y="111.621477"/>
      </g>
     </g>
     <g id="text_11">
      <!-- 0.6 -->
      <g transform="translate(7.2 115.058977)scale(0.1 -0.1)">
       <use xlink:href="#SimHei-30"/>
       <use x="50" xlink:href="#SimHei-2e"/>
       <use x="100" xlink:href="#SimHei-36"/>
      </g>
     </g>
    </g>
    <g id="ytick_5">
     <g id="line2d_12">
      <g>
       <use style="stroke:#000000;stroke-width:0.8;" x="29.2" xlink:href="#me5541a5049" y="72.086932"/>
      </g>
     </g>
     <g id="text_12">
      <!-- 0.8 -->
      <g transform="translate(7.2 75.524432)scale(0.1 -0.1)">
       <defs>
        <path d="M 175 1375 
Q 175 1675 325 1962 
Q 475 2250 825 2425 
Q 525 2600 425 2812 
Q 325 3025 312 3300 
Q 300 3575 387 3775 
Q 475 3975 650 4150 
Q 825 4325 1037 4387 
Q 1250 4450 1500 4450 
Q 1750 4450 1950 4400 
Q 2150 4350 2375 4187 
Q 2600 4025 2700 3725 
Q 2800 3425 2687 3025 
Q 2575 2625 2100 2400 
Q 2525 2275 2700 2012 
Q 2875 1750 2875 1375 
Q 2875 1000 2762 775 
Q 2650 550 2512 400 
Q 2375 250 2137 162 
Q 1900 75 1537 75 
Q 1175 75 912 162 
Q 650 250 475 425 
Q 300 600 237 837 
Q 175 1075 175 1375 
z
M 687 1400 
Q 675 1100 787 875 
Q 900 650 1200 587 
Q 1500 525 1825 600 
Q 2150 675 2275 950 
Q 2400 1225 2362 1500 
Q 2325 1775 2050 1962 
Q 1775 2150 1450 2125 
Q 1125 2100 912 1900 
Q 700 1700 687 1400 
z
M 775 3350 
Q 775 3100 950 2875 
Q 1125 2650 1500 2650 
Q 1875 2650 2062 2875 
Q 2250 3100 2237 3412 
Q 2225 3725 2012 3875 
Q 1800 4025 1437 4000 
Q 1075 3975 925 3787 
Q 775 3600 775 3350 
z
" id="SimHei-38" transform="scale(0.015625)"/>
       </defs>
       <use xlink:href="#SimHei-30"/>
       <use x="50" xlink:href="#SimHei-2e"/>
       <use x="100" xlink:href="#SimHei-38"/>
      </g>
     </g>
    </g>
    <g id="ytick_6">
     <g id="line2d_13">
      <g>
       <use style="stroke:#000000;stroke-width:0.8;" x="29.2" xlink:href="#me5541a5049" y="32.552386"/>
      </g>
     </g>
     <g id="text_13">
      <!-- 1.0 -->
      <g transform="translate(7.2 35.989886)scale(0.1 -0.1)">
       <use xlink:href="#SimHei-31"/>
       <use x="50" xlink:href="#SimHei-2e"/>
       <use x="100" xlink:href="#SimHei-30"/>
      </g>
     </g>
    </g>
   </g>
   <g id="line2d_14">
    <path clip-path="url(#pb908ae397a)" d="M 44.418182 106.193323 
L 45.520949 106.546771 
L 48.829249 105.942625 
L 53.240316 104.54726 
L 68.679051 101.102924 
L 74.192885 101.148104 
L 76.398419 100.983572 
L 79.706719 101.353897 
L 79.706719 100.985085 
L 84.117787 102.405357 
L 87.426087 103.880742 
L 89.631621 105.156354 
L 91.837154 106.694875 
L 94.042688 108.475543 
L 103.967589 118.849472 
L 106.173123 122.051907 
L 107.275889 124.020977 
L 111.686957 131.124219 
L 111.686957 132.168838 
L 111.686957 131.844485 
L 112.789723 134.242566 
L 116.098024 142.287785 
L 117.200791 145.427267 
L 119.406324 152.308655 
L 119.406324 152.734978 
L 120.509091 156.732267 
L 120.509091 157.755917 
L 121.611858 161.724366 
L 121.611858 162.503591 
L 123.817391 170.633671 
L 123.817391 171.170507 
L 128.228458 185.266093 
L 128.228458 186.45651 
L 129.331225 190.062445 
L 133.742292 201.609486 
L 137.050593 208.19213 
L 138.15336 209.979188 
L 138.15336 209.849983 
L 139.256126 210.939729 
L 142.564427 213.845732 
L 143.667194 214.210956 
L 148.078261 213.905458 
L 149.181028 212.853947 
L 151.386561 211.21056 
L 152.489328 209.94924 
L 159.105929 198.995003 
L 160.208696 195.608323 
L 163.516996 186.77936 
L 164.619763 183.490514 
L 164.619763 182.980126 
L 166.825296 175.67401 
L 169.03083 167.712745 
L 169.03083 165.348097 
L 171.236364 157.556053 
L 171.236364 155.747862 
L 172.33913 151.544878 
L 174.544664 144.742689 
L 175.647431 140.61978 
L 175.647431 139.039603 
L 176.750198 134.7705 
L 180.058498 125.596474 
L 181.161265 121.4664 
L 181.161265 120.39697 
L 186.675099 105.011692 
L 187.777866 102.679536 
L 187.777866 103.126912 
L 188.880632 102.744196 
L 193.2917 95.179661 
L 197.702767 90.138377 
L 202.113834 86.321012 
L 203.216601 86.778235 
L 207.627668 84.396427 
L 207.627668 86.25954 
L 212.038735 84.567308 
L 215.347036 84.197083 
L 217.552569 84.175173 
L 220.86087 83.919284 
L 223.066403 84.099909 
L 225.271937 84.609757 
L 225.271937 84.977043 
L 226.374704 85.396656 
L 227.47747 86.423663 
L 227.47747 87.407252 
L 230.785771 88.212608 
L 230.785771 88.766795 
L 240.710672 91.248196 
L 240.710672 92.26105 
L 247.327273 94.713557 
L 248.43004 95.778292 
L 253.943874 97.952992 
L 260.560474 100.261667 
L 260.560474 100.469982 
L 267.177075 102.715794 
L 267.177075 102.829504 
L 268.279842 103.21151 
L 275.999209 105.103397 
L 279.30751 105.733214 
L 288.129644 106.91458 
L 294.746245 107.274767 
L 294.746245 107.128447 
L 300.260079 107.224338 
L 310.18498 106.670438 
L 317.904348 105.714113 
L 324.520949 104.231788 
L 334.44585 100.992402 
L 336.651383 100.200939 
L 348.781818 94.574498 
L 348.781818 94.574498 
" style="fill:none;stroke:#ff0000;stroke-linecap:square;stroke-width:1.5;"/>
   </g>
   <g id="patch_3">
    <path d="M 29.2 240.10875 
L 29.2 22.66875 
" style="fill:none;stroke:#000000;stroke-linecap:square;stroke-linejoin:miter;stroke-width:0.8;"/>
   </g>
   <g id="patch_4">
    <path d="M 364 240.10875 
L 364 22.66875 
" style="fill:none;stroke:#000000;stroke-linecap:square;stroke-linejoin:miter;stroke-width:0.8;"/>
   </g>
   <g id="patch_5">
    <path d="M 29.2 240.10875 
L 364 240.10875 
" style="fill:none;stroke:#000000;stroke-linecap:square;stroke-linejoin:miter;stroke-width:0.8;"/>
   </g>
   <g id="patch_6">
    <path d="M 29.2 22.66875 
L 364 22.66875 
" style="fill:none;stroke:#000000;stroke-linecap:square;stroke-linejoin:miter;stroke-width:0.8;"/>
   </g>
   <g id="text_14">
    <!-- 图五：结果展示 -->
    <g transform="translate(154.6 16.66875)scale(0.12 -0.12)">
     <defs>
      <path d="M 5800 4975 
Q 5775 4350 5775 3600 
L 5775 925 
Q 5775 150 5800 -600 
L 5300 -600 
L 5300 -275 
L 1125 -275 
L 1125 -650 
L 625 -650 
Q 650 125 650 950 
L 650 3600 
Q 650 4325 625 4975 
L 5800 4975 
z
M 5300 150 
L 5300 4575 
L 1125 4575 
L 1125 150 
L 5300 150 
z
M 3225 4250 
Q 3075 4100 2950 3925 
L 4625 3925 
Q 4525 3700 4300 3375 
Q 4075 3050 3600 2600 
Q 4350 2225 5075 2150 
Q 4900 1925 4775 1675 
Q 3850 1950 3225 2350 
Q 2500 1875 1675 1650 
Q 1600 1875 1400 2075 
Q 2200 2200 2875 2600 
Q 2525 2925 2375 3150 
Q 2150 2900 1900 2650 
Q 1725 2850 1525 2950 
Q 1950 3300 2250 3737 
Q 2550 4175 2675 4475 
Q 2925 4350 3225 4250 
z
M 2450 1275 
Q 3550 950 4100 725 
Q 3975 525 3850 300 
Q 2825 725 2275 850 
Q 2375 1050 2450 1275 
z
M 2925 2050 
Q 3775 1700 4075 1600 
Q 3950 1400 3850 1150 
Q 3000 1550 2700 1650 
Q 2825 1825 2925 2050 
z
M 2625 3450 
Q 3000 3025 3275 2850 
Q 3600 3100 3875 3525 
L 2675 3525 
L 2625 3450 
z
" id="SimHei-56fe" transform="scale(0.015625)"/>
      <path d="M 4975 4600 
Q 5325 4600 5650 4625 
L 5650 4175 
Q 5325 4200 5000 4200 
L 3150 4200 
L 3000 2875 
L 4950 2875 
Q 4900 2575 4900 2125 
L 4850 300 
Q 5650 300 6000 325 
L 6000 -200 
Q 5650 -175 4975 -175 
L 1375 -175 
Q 775 -175 425 -225 
L 425 325 
Q 800 300 1325 300 
L 2150 300 
L 2450 2475 
L 1850 2475 
Q 1400 2475 1125 2450 
L 1125 2900 
Q 1425 2875 1850 2875 
L 2525 2875 
L 2675 4200 
L 1550 4200 
Q 1150 4200 800 4175 
L 800 4625 
Q 1125 4600 1550 4600 
L 4975 4600 
z
M 4350 300 
L 4425 2475 
L 2950 2475 
L 2650 300 
L 4350 300 
z
" id="SimHei-4e94" transform="scale(0.015625)"/>
      <path d="M 1200 2425 
L 2025 2425 
L 2025 1600 
L 1200 1600 
L 1200 2425 
z
M 1200 825 
L 2025 825 
L 2025 0 
L 1200 0 
L 1200 825 
z
" id="SimHei-ff1a" transform="scale(0.015625)"/>
      <path d="M 5725 1925 
Q 5700 1600 5700 1200 
L 5700 350 
Q 5700 -125 5725 -475 
L 5225 -475 
L 5225 0 
L 3525 0 
L 3525 -525 
L 3025 -525 
Q 3050 125 3050 325 
L 3050 1250 
Q 3050 1550 3025 1925 
L 5725 1925 
z
M 1900 4850 
Q 1700 4600 1475 4200 
Q 1250 3800 925 3200 
Q 1475 3225 1725 3225 
Q 1950 3625 2100 4000 
Q 2350 3825 2650 3675 
Q 2525 3575 2212 3125 
Q 1900 2675 1225 1650 
Q 2050 1775 2525 1850 
Q 2450 1575 2450 1375 
Q 2225 1350 1650 1275 
Q 1075 1200 525 1050 
Q 425 1300 350 1550 
Q 650 1625 950 2012 
Q 1250 2400 1475 2825 
Q 1300 2825 962 2787 
Q 625 2750 375 2675 
Q 300 2925 225 3150 
Q 500 3375 812 3925 
Q 1125 4475 1300 5125 
Q 1600 4975 1900 4850 
z
M 4075 4175 
Q 4075 4600 4050 5175 
L 4575 5175 
Q 4550 4725 4550 4175 
L 5275 4175 
Q 5750 4175 6150 4200 
L 6150 3750 
Q 5750 3775 5300 3775 
L 4550 3775 
L 4550 2950 
L 5125 2950 
Q 5475 2950 5825 2975 
L 5825 2525 
Q 5525 2550 5100 2550 
L 3650 2550 
Q 3225 2550 2900 2525 
L 2900 2975 
Q 3225 2950 3600 2950 
L 4075 2950 
L 4075 3775 
L 3525 3775 
Q 3075 3775 2675 3750 
L 2675 4200 
Q 3000 4175 3475 4175 
L 4075 4175 
z
M 5225 400 
L 5225 1525 
L 3525 1525 
L 3525 400 
L 5225 400 
z
M 2575 650 
Q 2500 425 2525 175 
Q 2050 100 1450 0 
Q 850 -100 425 -225 
Q 325 100 225 350 
Q 750 375 1175 437 
Q 1600 500 2575 650 
z
" id="SimHei-7ed3" transform="scale(0.015625)"/>
      <path d="M 2975 -525 
Q 3000 -75 3000 575 
L 3000 1600 
L 2900 1600 
Q 2725 1275 2500 1000 
Q 2275 725 1987 512 
Q 1700 300 1362 100 
Q 1025 -100 675 -250 
Q 575 25 400 275 
Q 700 350 975 487 
Q 1250 625 1525 787 
Q 1800 950 2000 1150 
Q 2200 1350 2375 1600 
L 1375 1600 
Q 1000 1600 450 1550 
L 450 2050 
Q 950 2000 1375 2000 
L 3000 2000 
L 3000 2450 
L 1150 2450 
Q 1175 3050 1175 3775 
Q 1175 4500 1150 5000 
L 5325 5000 
Q 5300 4500 5300 3775 
Q 5300 3050 5325 2450 
L 3475 2450 
L 3475 2000 
L 5050 2000 
Q 5550 2000 5925 2025 
L 5925 1550 
Q 5500 1600 5100 1600 
L 4125 1600 
Q 4450 1075 4925 800 
Q 5400 525 6050 375 
Q 5875 150 5775 -175 
Q 4925 150 4425 550 
Q 3925 950 3675 1600 
L 3475 1600 
L 3475 550 
Q 3475 0 3500 -525 
L 2975 -525 
z
M 4825 3875 
L 4825 4625 
L 3475 4625 
L 3475 3875 
L 4825 3875 
z
M 3000 3875 
L 3000 4625 
L 1675 4625 
L 1675 3875 
L 3000 3875 
z
M 4825 2825 
L 4825 3500 
L 3475 3500 
L 3475 2825 
L 4825 2825 
z
M 3000 2825 
L 3000 3500 
L 1675 3500 
L 1675 2825 
L 3000 2825 
z
" id="SimHei-679c" transform="scale(0.015625)"/>
      <path d="M 5450 5000 
Q 5425 4625 5425 4275 
Q 5425 3925 5450 3575 
L 4375 3575 
L 4375 2975 
L 4800 2975 
Q 5050 2975 5400 3000 
L 5400 2550 
Q 4975 2575 4825 2575 
L 4375 2575 
L 4375 1975 
L 5275 1975 
Q 5500 1975 5900 2000 
L 5900 1550 
Q 5500 1575 5300 1575 
L 3725 1575 
Q 3900 975 4325 625 
Q 4725 1050 4975 1475 
Q 5175 1325 5450 1175 
Q 5225 1025 4625 375 
Q 5200 -25 6025 -150 
Q 5825 -325 5700 -625 
Q 5000 -400 4562 -150 
Q 4125 100 3800 500 
Q 3475 900 3275 1575 
L 2600 1575 
L 2600 150 
Q 3125 450 3300 600 
Q 3350 325 3450 100 
Q 3300 25 2937 -200 
Q 2575 -425 2300 -675 
Q 2125 -425 1975 -250 
Q 2150 -50 2150 300 
L 2150 1575 
L 1350 1575 
Q 1275 800 1087 225 
Q 900 -350 725 -625 
Q 525 -450 325 -350 
Q 550 75 687 525 
Q 825 975 875 1475 
Q 925 1975 912 2587 
Q 900 3200 900 3650 
Q 900 4125 875 5000 
L 5450 5000 
z
M 4975 3975 
L 4975 4575 
L 1350 4575 
L 1350 3975 
L 4975 3975 
z
M 2500 1975 
L 2500 2575 
L 2250 2575 
Q 2025 2575 1625 2550 
L 1625 3000 
Q 2025 2975 2250 2975 
L 2500 2975 
L 2500 3575 
L 1350 3575 
L 1350 1975 
L 2500 1975 
z
M 3925 2975 
L 3925 3575 
L 2950 3575 
L 2950 2975 
L 3925 2975 
z
M 3925 1975 
L 3925 2575 
L 2950 2575 
L 2950 1975 
L 3925 1975 
z
" id="SimHei-5c55" transform="scale(0.015625)"/>
      <path d="M 5175 3050 
Q 5500 3050 5975 3075 
L 5975 2575 
Q 5500 2625 5150 2625 
L 3500 2625 
L 3500 -75 
Q 3500 -350 3212 -487 
Q 2925 -625 2425 -675 
Q 2400 -425 2175 -100 
Q 2625 -125 2825 -87 
Q 3025 -50 3025 175 
L 3025 2625 
L 1400 2625 
Q 900 2625 500 2600 
L 500 3075 
Q 925 3050 1400 3050 
L 5175 3050 
z
M 4425 4775 
Q 4775 4775 5225 4800 
L 5225 4325 
Q 4775 4350 4425 4350 
L 2125 4350 
Q 1600 4350 1200 4325 
L 1200 4800 
Q 1600 4775 2125 4775 
L 4425 4775 
z
M 2225 1825 
Q 1950 1400 1650 900 
Q 1350 400 975 -125 
Q 775 75 500 150 
Q 900 600 1200 1087 
Q 1500 1575 1725 2075 
Q 1975 1925 2225 1825 
z
M 4500 2025 
Q 5450 925 5925 275 
Q 5650 125 5475 -25 
Q 5100 550 4125 1750 
Q 4325 1850 4500 2025 
z
" id="SimHei-793a" transform="scale(0.015625)"/>
     </defs>
     <use xlink:href="#SimHei-56fe"/>
     <use x="100" xlink:href="#SimHei-4e94"/>
     <use x="200" xlink:href="#SimHei-ff1a"/>
     <use x="300" xlink:href="#SimHei-7ed3"/>
     <use x="400" xlink:href="#SimHei-679c"/>
     <use x="500" xlink:href="#SimHei-5c55"/>
     <use x="600" xlink:href="#SimHei-793a"/>
    </g>
   </g>
  </g>
 </g>
 <defs>
  <clipPath id="pb908ae397a">
   <rect height="217.44" width="334.8" x="29.2" y="22.66875"/>
  </clipPath>
 </defs>
</svg>
